<?xml version="1.0" encoding="UTF-8" standalone="no"?>
<svg
   xmlns:dc="http://purl.org/dc/elements/1.1/"
   xmlns:cc="http://creativecommons.org/ns#"
   xmlns:rdf="http://www.w3.org/1999/02/22-rdf-syntax-ns#"
   xmlns:svg="http://www.w3.org/2000/svg"
   xmlns="http://www.w3.org/2000/svg"
   xmlns:sodipodi="http://sodipodi.sourceforge.net/DTD/sodipodi-0.dtd"
   xmlns:inkscape="http://www.inkscape.org/namespaces/inkscape"
   id="Laag_1"
   data-name="Laag 1"
   viewBox="0 0 54.216799 62.9995"
   version="1.1"
   sodipodi:docname="UL - Algemeen Internationaal - RGB-color - diapositief - without margin.svg"
   width="54.216801"
   height="62.9995"
   inkscape:version="1.0.2-2 (e86c870879, 2021-01-15)">
  <metadata
     id="metadata266">
    <rdf:RDF>
      <cc:Work
         rdf:about="">
        <dc:format>image/svg+xml</dc:format>
        <dc:type
           rdf:resource="http://purl.org/dc/dcmitype/StillImage" />
        <dc:title>UL - Algemeen Internationaal - RGB-color - diapositief</dc:title>
      </cc:Work>
    </rdf:RDF>
  </metadata>
  <sodipodi:namedview
     pagecolor="#ffffff"
     bordercolor="#666666"
     borderopacity="1"
     objecttolerance="10"
     gridtolerance="10"
     guidetolerance="10"
     inkscape:pageopacity="0"
     inkscape:pageshadow="2"
     inkscape:window-width="1920"
     inkscape:window-height="1027"
     id="namedview264"
     showgrid="false"
     fit-margin-top="0"
     fit-margin-left="0"
     fit-margin-right="0"
     fit-margin-bottom="0"
     inkscape:zoom="5.6507937"
     inkscape:cx="73.5"
     inkscape:cy="31.4927"
     inkscape:window-x="-8"
     inkscape:window-y="-8"
     inkscape:window-maximized="1"
     inkscape:current-layer="Laag_1" />
  <defs
     id="defs227">
    <style
       id="style225">.cls-1{fill:#fff;}.cls-2{fill:#001158;}</style>
  </defs>
  <title
     id="title229">UL - Algemeen Internationaal - RGB-color - diapositief</title>
  <path
     class="cls-1"
     d="m 27.1079,0.3999 c -14.7271,0 -26.709,13.9536 -26.709,31.0996 0,17.1485 11.9819,31.0996 26.709,31.0996 14.7271,0 26.70951,-13.9511 26.70951,-31.0996 0,-17.146 -11.98251,-31.0996 -26.70951,-31.0996 z"
     id="path231" />
  <path
     class="cls-2"
     d="m 11.9643,16.7485 c 0.31111,-0.0556 0.7012,-0.1289 1.0293,-0.2172 v 2.187 c 0,0.2715 0.0078,0.2851 0.334,0.3188 v 0.1621 H 11.998 v -0.1621 c 0.3267,-0.0337 0.336,-0.0473 0.336,-0.3188 v -1.6006 c 0,-0.1743 -0.0161,-0.1992 -0.1514,-0.21 L 11.9643,16.895 Z m 26.6079,-0.1679 c -0.02579,0.1821 -0.0502,0.3886 -0.1035,0.7656 h 0.1875 c 0.0918,-0.2393 0.1094,-0.2583 0.3863,-0.2583 h 0.8632 c -0.3725,0.6885 -0.81,1.3989 -1.2666,2.0957 l 0.0337,0.0649 0.5987,-0.0503 c 0.3525,-0.8461 0.73391,-1.7236 1.14991,-2.5615 L 40.374,16.5806 Z m 2.2896,-0.002 -0.1729,1.3745 a 1.62093,1.62093 0 0 1 0.4151,-0.0703 0.55023,0.55023 0 0 1 0.5708,0.6118 c 0,0.3365 -0.1206,0.4912 -0.3013,0.4912 -0.1816,0 -0.4228,-0.2221 -0.5195,-0.2998 a 0.12392,0.12392 0 0 0 -0.1611,0.0054 0.38792,0.38792 0 0 0 -0.1539,0.2129 0.16214,0.16214 0 0 0 0.0562,0.1841 1.0827,1.0827 0 0 0 0.5571,0.1601 1.39106,1.39106 0 0 0 0.7232,-0.2587 0.91292,0.91292 0 0 0 0.4233,-0.7525 0.77889,0.77889 0 0 0 -0.8721,-0.7285 1.14674,1.14674 0 0 0 -0.479,0.1211 l 0.087,-0.5664 h 1.07171 l 0.084,-0.4849 z m -26.8213,0 -0.1738,1.3745 a 1.63782,1.63782 0 0 1 0.417,-0.0703 0.54879,0.54879 0 0 1 0.5688,0.6118 c 0,0.3365 -0.1206,0.4912 -0.3012,0.4912 -0.1806,0 -0.42189,-0.2221 -0.5196,-0.2998 a 0.12253,0.12253 0 0 0 -0.1601,0.0054 0.38244,0.38244 0 0 0 -0.1538,0.2129 0.1642,0.1642 0 0 0 0.0561,0.1841 1.07337,1.07337 0 0 0 0.5571,0.1601 1.39108,1.39108 0 0 0 0.7232,-0.2587 0.91353,0.91353 0 0 0 0.4238,-0.7525 0.77933,0.77933 0 0 0 -0.8725,-0.7285 1.15094,1.15094 0 0 0 -0.48,0.1211 l 0.08691,-0.5664 h 1.07269 l 0.083,-0.4849 z m 39.77691,14.9209 c 0,17.1485 -11.98251,31.0996 -26.70951,31.0996 -14.727,0 -26.709,-13.9511 -26.709,-31.0996 0,-17.146 11.9819,-31.0996 26.709,-31.0996 14.7271,0 26.70951,13.9536 26.70951,31.0996 z m 0.39939,0 C 54.2168,14.1318 42.0552,0 27.1079,0 12.1577,0 0,14.1318 0,31.4995 c 0,17.3692 12.1577,31.5 27.1079,31.5 14.9473,0 27.1089,-14.1308 27.1089,-31.5 z M 26.168,12.5083 a 0.39922,0.39922 0 0 0 0.415,0.1587 0.62991,0.62991 0 0 0 0.3813,-0.3286 1.37294,1.37294 0 0 0 -0.33789,0.02 c -0.09271,0.0137 -0.081,0.1006 -0.18751,0.0684 -0.1147,-0.0352 -0.1621,0.0146 -0.2709,0.0815 m 0.0888,-0.5815 c -0.0918,0.0088 -0.1596,0.1006 -0.0757,0.1635 0.0581,0.043 0.0581,-0.0898 0.169,-0.0312 a 0.14812,0.14812 0 0 0 0.1655,-0.0142 0.16431,0.16431 0 0 1 0.165,-0.0332 c 0.0625,0.0235 0.11581,-0.1367 -0.0185,-0.1484 a 0.25311,0.25311 0 0 0 -0.1816,0.0474 c -0.0694,0.0542 -0.0518,0.0278 -0.1167,0.0239 a 0.32667,0.32667 0 0 0 -0.107,-0.0078 m 0.4527,-0.8706 v 0 l -0.002,9e-4 z m 0.6894,-0.3589 a 1.931,1.931 0 0 0 -0.8379,0.2304 0.09819,0.09819 0 1 0 0.1485,0.1285 c 0.0019,-0.0039 -0.0298,0.0136 0.0493,-0.0425 a 0.29786,0.29786 0 0 0 -0.002,0.0508 0.1792,0.1792 0 1 0 0.2705,-0.1753 1.59929,1.59929 0 0 1 0.3775,-0.0606 C 27.459,10.8267 27.50341,10.8062 27.50141,10.7505 27.4975,10.6973 27.4551,10.6953 27.3989,10.6973 M 26.2256,10.645 a 3.0983,3.0983 0 0 1 1.6089,-0.4858 0.63329,0.63329 0 0 1 0.6923,0.4409 c 0.20661,-0.2139 0.085,-0.769 -0.6303,-0.7563 a 2.0128,2.0128 0 0 0 -1.6709,0.8012 m 0.79681,15.2032 C 25.8315,25.6997 25.7041,24.9175 25.6977,24.5776 25.6929,24.2983 25.9805,24.4273 25.48241,24.1597 A 1.95327,1.95327 0 0 0 23.7632,24.0171 l 0.1255,0.124 a 1.64854,1.64854 0 0 1 1.1376,0.3389 c -0.1464,2.0947 1.275,1.958 1.275,1.958 a 1.19114,1.19114 0 0 0 0.9443,0.5693 c 0.1157,-0.0381 0.2617,-0.0859 0.4419,-0.1396 a 1.21238,1.21238 0 0 1 -0.66509,-1.0195 m 3.45019,0.3691 c 0.0069,-0.0303 0.57281,-0.1758 0.5782,-0.208 a 0.67954,0.67954 0 0 1 0.4018,-0.4942 0.21722,0.21722 0 0 0 0.15581,-0.1933 0.70269,0.70269 0 0 0 -0.20711,-0.6748 4.07844,4.07844 0 0 1 -0.75189,-1.8311 c -0.03861,-0.1152 -0.09771,0.0196 -0.09771,0.0196 0,0 0.36971,1.8496 -0.2905,1.9277 a 0.99878,0.99878 0 0 1 -0.8169,1.0908 c -0.0976,0.0186 -0.1577,0.0772 -0.1557,0.1553 a 1.25656,1.25656 0 0 1 -0.1573,0.4922 8.05752,8.05752 0 0 1 1.3955,-0.1885 0.59217,0.59217 0 0 0 -0.0542,-0.0957 m 0.0791,-4.1846 a 1.91466,1.91466 0 0 1 0.68071,-0.123 0.66607,0.66607 0 0 1 0.54789,0.2724 l 0.1347,0.3916 c 0,0 0.3902,0.1924 0.5313,-0.0078 0.1245,-0.1738 0.05911,-0.3496 -0.1006,-0.542 a 0.98176,0.98176 0 0 0 -0.94629,-0.4072 1.47661,1.47661 0 0 0 -0.87351,0.3242 l 0.0258,0.0918 m -9.1088,-2.6406 a 2.458,2.458 0 0 0 -0.62549,2.0996 c 0.05029,1.4238 0.75089,1.5742 1.34859,0.8252 0.4639,-0.5811 0.6528,-1.2095 0.5488,-1.1758 -0.3178,0.105 -0.8979,0.1499 -1.1465,-0.1748 a 1.46625,1.46625 0 0 1 0.0484,-1.4985 l -0.1738,-0.0757 m 8.5419,23.2109 a 7.41717,7.41717 0 0 1 -1.8627,-1.9736 c -1.4009,-2.251 -1.6011,-4.1357 -1.5884,-9.2861 0,-0.208 0.0039,-0.4034 0.0058,-0.6016 L 25.789,30.6685 c 0,0 -0.164,5.4072 -0.164,6.0039 0,0.8154 0.228,1.5752 0.3555,0.0478 0.062,-0.7597 -0.1148,-3.2011 0.08691,-3.2011 0.28169,0 0.34369,9.205 0.03949,9.205 a 15.10152,15.10152 0 0 0 -1.6899,-0.1045 1.50589,1.50589 0 0 0 -1.2989,-0.2656 2.25208,2.25208 0 0 0 0.6202,0.3252 l -9.75689,2.5293 -0.59471,-0.3516 -4.0044,1.6758 4.4439,-0.4336 0.23921,-0.6718 9.92479,-2.6368 c 0.4336,0.1905 0.8701,0.3731 0.8921,0.3965 0.1162,0.1094 1.3569,-0.0918 1.3232,0.3985 -0.0175,0.2597 -0.3613,0.4648 -0.7197,0.6093 -0.3408,0.1387 -0.8232,0.0137 -0.8042,0.0918 a 1.704,1.704 0 0 0 1.1397,0.0957 5.51638,5.51638 0 0 0 1.8559,-1.0605 c 0,0 2.1377,-0.1524 2.4263,-0.5899 A 1.58184,1.58184 0 0 1 29.9848,42.603 m -16.3906,3.1211 -2.6382,0.4073 2.7657,-0.7627 z M 14.333,28.6792 c 0,0 1.2622,0.1895 1.3452,-0.5107 0.0396,-0.3369 -0.1699,-0.4473 -0.3486,-0.419 -0.1621,0.0274 -0.3033,0.1621 -0.1529,0.3946 0.07871,0.1259 0.2378,0.373 -0.8437,0.5351 m -1.0352,-0.6211 a 0.14684,0.14684 0 1 0 0.29061,0 0.193,0.193 0 0 0 -0.023,-0.0879 l 0.11179,0.0069 A 0.0759,0.0759 0 0 0 13.7461,27.897 0.07709,0.07709 0 0 0 13.665,27.8276 l -0.51759,0.0235 c -0.041,0.0039 -0.06781,0.0117 -0.06591,0.0547 0.003,0.041 0.0327,0.0449 0.0733,0.041 l 0.1748,0.0098 a 0.17744,0.17744 0 0 0 -0.0318,0.1015 m 3.8345,4.9815 a 0.62972,0.62972 0 0 1 1.03711,0.1367 1.63253,1.63253 0 0 0 -0.61031,0.0693 c 0,0 0.6279,0.2197 0.4751,0.6133 a 0.82572,0.82572 0 0 0 -0.51079,-0.2891 c 0,0 0.169,0.5801 -0.17191,0.7315 0,0 -0.0673,-0.5127 -0.4067,-0.4951 a 0.35563,0.35563 0 0 0 -0.3242,0.4121 c 0,0 -0.2056,-0.1211 -0.2056,-0.5459 a 0.24924,0.24924 0 0 0 -0.2031,-0.2744 3.52472,3.52472 0 0 1 -1.8057,-1.1426 4.03493,4.03493 0 0 1 -1.3779,0.4082 c 0,0 -0.1738,0.1992 0.1016,0.2226 a 2.12611,2.12611 0 0 1 1.8203,0.9727 c 0.103,0.1523 0.2905,0.291 0.78321,0.291 0,0 0,0.5625 -0.96971,0.5811 0,0 0.5869,0.4345 0.9751,0.7724 0.16061,0.1358 0.2358,0.0518 0.3544,-0.0351 0.1343,-0.1026 0.8433,-0.5674 1.0816,0.1377 0,0 -0.4141,-0.0791 -0.5708,0.0332 a 1.018,1.018 0 0 1 0.3169,0.8193 c 0,0 -0.2696,-0.3555 -0.5,-0.2637 -0.1133,0.0469 0.1919,0.4102 -0.2031,0.5801 0,0 0.0454,-0.499 -0.4327,-0.4863 0,0 0.0689,0.3164 -0.3398,0.3838 0,0 0.2417,-0.626 -0.188,-0.751 -0.1191,-0.0313 -2.0268,-0.2549 -2.2812,-1.0547 a 3.731,3.731 0 0 1 0.52731,-0.2051 c 0,0 -1.10641,-0.8027 -1.27641,-1.3691 0,0 -0.228,-0.0576 -0.1362,0.0713 0.085,0.1201 0.3062,0.2715 0.1875,1.3974 a 0.73634,0.73634 0 0 0 0.4082,0.7696 1.14294,1.14294 0 0 1 -1.2602,-0.4785 c 0,0 -0.025,1.5117 0.8344,1.5527 0.3418,0.0176 1.0215,0.0332 1.0034,0.8887 0,0 -0.34569,-0.4121 -0.5996,-0.3262 0,0 0.2442,0.291 0.1416,0.5469 0,0 -0.3222,-0.4082 -0.4922,-0.3418 0,0 0.1333,0.291 0.0162,0.4629 0,0 -0.2798,-0.6426 -0.4331,-0.625 -0.1519,0.0175 -0.2998,0.2988 -0.26659,0.5898 A 0.33459,0.33459 0 0 1 11.4082,37.27 c 0.103,-0.1884 0.1846,-0.1611 0.2568,-0.2734 0.06941,-0.1025 -2.1958,-0.9365 -1.9072,-2.6084 0,0 0.3633,0.3154 0.6304,0.0664 0.22121,-0.2051 0.1025,-0.748 -0.3745,-1.1416 0,0 0.4199,-0.1572 0.59571,-0.2236 0.13619,-0.0498 0.06,-0.2442 0.12839,-0.3965 A 1.27388,1.27388 0 0 1 9.7822,32.3687 1.00481,1.00481 0 0 1 9.6138,31.4155 5.09279,5.09279 0 0 1 10.459,29.9898 c 0.0986,-0.1348 0.1909,-0.2598 0.2588,-0.3614 0.1879,-0.2744 0.4189,-0.8144 0.2558,-1.0937 a 0.49047,0.49047 0 0 0 -0.416,-0.2178 1.35961,1.35961 0 0 0 -0.2427,0.0176 c 0.168,0.3506 -0.1206,0.8447 -0.5327,1.1006 -0.6489,0.4033 -0.54879,0.8838 -0.54879,0.8838 a 4.56292,4.56292 0 0 1 -0.083,-1.7002 c 0.13329,-0.5196 0.56489,-1.1016 1.04879,-0.6329 0,0 0.2363,-0.0175 0.32521,-0.0175 a 0.83493,0.83493 0 0 1 0.74169,0.3925 c 0.333,0.5625 -0.2412,1.4249 -0.2676,1.461 -0.0713,0.1035 -0.166,0.2324 -0.2646,0.3711 a 5.03512,5.03512 0 0 0 -0.7886,1.2988 c -0.06689,0.292 -0.0591,0.5332 0.0889,0.6484 a 1.13444,1.13444 0 0 0 0.8247,0.1993 6.21992,6.21992 0 0 1 1.5678,-1.0235 c 0.2715,-0.0898 0.3023,-0.3593 0.1006,-0.3183 -0.16989,0.0351 -1.0093,0.1582 -1.2822,-0.3389 0,0 0.9424,-0.2627 0.9858,-0.7646 a 0.82229,0.82229 0 0 1 -0.8828,0.0566 c 0,0 0.7764,-0.5625 0.61231,-1.0586 -0.05711,-0.1689 -0.20651,-0.7813 0.002,-0.9287 0.08489,-0.0586 -0.18751,-0.2725 -0.34861,-0.2559 a 0.52209,0.52209 0 0 1 0.7338,-0.0068 c 0.0415,0.043 0.1621,0.0264 0.2369,0.0068 a 2.97162,2.97162 0 0 1 0.642,-0.1728 c 0.2334,0 0.3526,-0.1162 0.6148,0.2187 a 3.10866,3.10866 0 0 0 0.4204,0.1934 c 0.0972,0.0342 0.0693,0.1699 0.0518,0.3662 -0.0083,0.0947 -0.0557,0.0576 -0.6026,0.1562 -0.1484,0.0264 -0.3598,0.6163 -0.269,0.6319 0.0952,0.0176 0.6499,-0.207 0.7617,-0.1563 a 0.28167,0.28167 0 0 1 0.0503,0.375 c -0.0591,0.0938 -0.2134,0.0166 -0.3672,0.0498 -0.1987,0.0479 -0.4409,0.2627 -0.0942,0.5655 0.1967,0.1699 0.8686,0.4433 1.4482,-0.666 a 1.18868,1.18868 0 0 1 0.1362,0.8017 l 1.482,-1.2285 c 0,0 -0.1367,-0.8184 0.4751,-1.126 0,0 -0.2007,0.3496 -0.1167,0.5371 a 1.30387,1.30387 0 0 1 0.645,-0.2988 c 0,0 -0.4063,0.4697 -0.3882,0.5547 0,0 0.5601,-0.1602 0.69531,-0.043 0,0 -0.57911,0.2559 -0.57911,0.4102 0,0.1367 0.4082,0.1709 0.5967,0.1211 0,0 -0.0859,0.4082 -0.7661,0.3388 a 6.311,6.311 0 0 1 -1.5332,1.4864 c -0.23929,0.1533 0.0415,0.498 0.562,0.3232 a 1.03576,1.03576 0 0 0 0.4424,-0.3232 c 0,0 0.477,1.0224 -1.14069,1.0752 a 15.973,15.973 0 0 1 1.10749,1.2109 c 0.1362,0.2041 0.2202,0.0312 0.2734,-0.0693 m 26.5493,4.5361 c -0.0166,0.084 -0.0303,0.1914 -0.1045,0.2148 a 0.46494,0.46494 0 0 0 -0.2094,0.1016 c -0.0938,0.0732 -0.07429,0.1074 0.0463,0.1084 0.2056,0.0078 0.42,-0.3154 0.4336,-0.375 0.0152,-0.0654 0.1871,-0.1709 0.26081,-0.2041 0.104,-0.0488 0.0049,-0.1582 0.0049,-0.1582 l -0.1905,-0.043 a 0.43,0.43 0 0 0 -0.059,-0.3476 1.23587,1.23587 0 0 0 0.7851,-0.2041 c 0.0483,-0.0557 0.1826,-0.1573 0.169,-0.2295 A 0.39758,0.39758 0 0 0 44.709,36.2407 1.07143,1.07143 0 0 0 44.0058,36.2066 C 43.6235,36.3374 43.4219,36.187 43.37641,36.1284 43.355,36.103 43.3628,36.0523 43.3926,35.9839 c 0.06881,0.0557 0.25481,0.0078 0.33981,-0.0293 0.11719,-0.0547 0.14009,-0.2031 0.02149,-0.2305 -0.3438,-0.0791 -0.417,0.1299 -0.417,0.1299 -0.0928,0.1553 -0.1084,0.2686 -0.0493,0.3447 a 0.76431,0.76431 0 0 0 0.7529,0.1133 0.94984,0.94984 0 0 1 0.6123,0.0254 c 0.0278,0.0176 0,0.1475 0,0.1524 0.0078,0.039 -0.0615,0.0761 -0.0869,0.1054 -0.1343,0.1563 -0.647,0.1699 -0.8516,0.166 a 0.85267,0.85267 0 0 0 -0.7465,0.1602 c -0.1602,0.1172 -0.2706,0.1621 -0.3555,0.123 -0.166,-0.0791 0.1973,-0.4541 0.2466,-0.5107 0.06051,-0.0732 0.04151,-0.1338 -0.0572,-0.0986 -0.3515,0.1172 -0.3696,-0.0996 -0.416,-0.1719 -0.06,-0.0977 -0.0708,-0.0391 -0.1094,0.0215 -0.0595,0.0908 0.0792,0.5215 -0.249,0.5957 a 0.662,0.662 0 0 1 -0.7968,-0.3906 l -0.0962,0.0312 a 0.78268,0.78268 0 0 0 0.395,0.4619 c 0.1562,0.0889 0.1523,0.1387 0.16111,0.211 l 0.14939,0.1425 c -0.0141,0.0479 -0.12739,0.2823 -0.12739,0.2823 -0.01611,0.1084 -0.42381,0.4453 -0.42381,0.4453 -0.1206,-0.0059 -0.3658,0.0713 -0.3179,0.1328 0.1382,0.1904 0.456,0.0166 0.456,0.0166 a 3.34078,3.34078 0 0 1 0.6719,-0.6279 c 0,0 0.6026,-0.1729 0.7832,-0.2413 0.1631,-0.0683 0.1177,0.0264 0.1177,0.0264 a 5.25619,5.25619 0 0 0 -0.334,0.6182 c -0.1699,0.0293 -0.3667,0.1572 -0.2964,0.2217 0.15531,0.1377 0.4131,-0.1211 0.4131,-0.1211 -0.0337,-0.0616 0.1538,-0.2637 0.1538,-0.2637 l 0.251,-0.5518 0.249,-0.1123 a 0.45369,0.45369 0 0 0 0.2153,0.2705 c 0.1626,0.0791 0.0303,0.1436 0.0303,0.1436 m 0.2661,-9.834 0.1983,-0.4121 -0.4859,0.2363 -0.0493,-0.375 -0.2617,0.3125 -0.3252,-0.3515 0.0127,0.4004 z m -6.476,0.1875 c -0.5411,-0.082 -0.462,-0.2041 -0.4214,-0.2646 0.0747,-0.1202 0.0049,-0.1895 -0.0762,-0.2012 -0.0908,-0.0117 -0.1948,0.042 -0.1758,0.2109 0.0425,0.3496 0.6734,0.2549 0.6734,0.2549 m -0.9341,-1.1367 h -0.2481 v 0.5254 h 0.2481 z m 2.9453,0.0498 h -0.249 v 0.5244 h 0.249 z m -3.5972,2.0068 h -0.249 v 0.5244 h 0.249 z m -0.2212,2.6201 h -0.249 v 0.5245 h 0.249 z m 1.8223,0.6612 h -0.249 v 0.5254 h 0.249 z m -6.0938,0.5117 c 0.0298,-0.1299 0.0191,-0.4219 -0.225,-0.4355 -0.1954,-0.0108 -0.4307,0.0332 -0.46,1.1445 a 1.86911,1.86911 0 0 1 0.60641,-0.0215 6.28285,6.28285 0 0 1 0.07859,-0.6875 m 0.3716,-4.6787 c -0.249,-0.0127 -0.417,0.2158 -0.47019,0.5703 -0.05911,0.3896 -0.09861,0.7061 -0.12251,0.9131 a 1.15507,1.15507 0 0 1 0.1938,0.0156 2.23678,2.23678 0 0 1 0.563,-0.9687 0.1948,0.1948 0 0 1 -0.0078,-0.0508 c 0.0434,-0.3252 -0.06149,-0.4746 -0.1563,-0.4795 m -1.19919,1.5322 a 1.24272,1.24272 0 0 1 0.15429,-0.0273 4.34459,4.34459 0 0 0 -0.0791,-1.0352 c -0.0928,-0.3867 -0.2637,-0.5078 -0.4106,-0.5449 -0.1177,0.1162 -0.2788,0.0644 -0.4585,0.3691 a 3.74082,3.74082 0 0 1 0.7627,1.2422 l 0.03121,-0.0039 m 2.90429,1.9668 c 0.0039,-0.4062 0.0088,-0.8135 0.0088,-1.2168 -0.0513,0.1777 -0.1099,0.3613 -0.1865,0.5586 0.0503,0.1992 0.10841,0.416 0.1777,0.6582 m -2.189,4.3438 a 0.1429,0.1429 0 0 1 0.0669,0.1035 0.723,0.723 0 0 1 0.1011,0.1601 3.66234,3.66234 0 0 1 0.0215,1.6778 2.45171,2.45171 0 0 0 0.3145,-1.9473 1.71282,1.71282 0 0 0 -0.2017,-0.3613 c 0,0 -0.3535,0.3261 -0.3023,0.3672 m 0.732,-4.8643 a 0.78124,0.78124 0 0 0 -0.2066,-0.9521 1.532,1.532 0 0 1 -0.0166,-0.1944 1.49057,1.49057 0 0 1 0.7495,-1.081 c 0.1089,-0.0547 0.2725,-0.125 0.3565,-0.0235 a 1.34549,1.34549 0 0 1 0.1396,1.0703 3.48519,3.48519 0 0 0 -0.1455,-0.415 0.35995,0.35995 0 0 0 -0.6606,0.2861 22.48618,22.48618 0 0 1 0.707,2.1543 l 0.1333,0.4434 a 5.826,5.826 0 0 1 -0.5517,3.0742 12.326,12.326 0 0 0 -0.5743,4.4434 22.77063,22.77063 0 0 1 1.0899,-4.4903 9.991,9.991 0 0 0 0.36521,-0.9492 30.41956,30.41956 0 0 1 -0.86421,6.3613 5.13855,5.13855 0 0 1 -0.8702,1.7813 3.87683,3.87683 0 0 1 -0.5107,0.5684 L 31.1157,42.9976 31.105,42.9898 C 31.0888,42.981 31.0732,42.9712 31.0537,42.9614 l -0.0049,-0.0048 a 8.23533,8.23533 0 0 1 -1.874,-1.6485 7.1594,7.1594 0 0 1 -0.7163,-1.0176 c -0.9697,-1.6816 -1.2593,-2.9804 -1.3628,-5.9082 -0.023,-0.6396 -0.0366,-1.3486 -0.0484,-2.1601 -0.0029,-0.2735 -0.0068,-0.5537 -0.0097,-0.8467 a 22.15094,22.15094 0 0 1 0.207,-3.7852 14.18941,14.18941 0 0 1 1.7842,-0.4716 7.26532,7.26532 0 0 1 2.1885,-0.1739 0.14715,0.14715 0 0 0 0.019,0.1739 0.96816,0.96816 0 0 0 0.2974,0.248 1.55511,1.55511 0 0 0 -0.5157,0.4629 1.02953,1.02953 0 0 0 -0.642,-0.5615 c -0.3912,-0.0938 -0.7984,-0.0088 -1.1065,0.6338 a 1.175,1.175 0 0 0 -1.1367,0.0908 c -0.5147,0.4209 -0.644,1.5439 0.1519,2.9912 -0.0728,0.209 -0.1431,0.4102 -0.1944,0.583 -0.6343,2.1172 0.2725,3.2949 0.8643,4.4404 a 33.91457,33.91457 0 0 1 1.29781,3.8418 11.28193,11.28193 0 0 0 -0.76271,-4.1679 c -0.4258,-0.8799 -1.25529,-2.2364 -0.769,-3.7676 0.1894,-0.5977 0.5303,-1.3574 0.6831,-2.0742 0.0181,-0.4102 -0.5015,-0.8692 -0.6577,-0.3672 -0.0435,0.2148 -0.1065,0.4336 -0.1739,0.6582 -0.33979,-0.7881 -0.3891,-1.416 -0.1245,-1.6348 a 0.74925,0.74925 0 0 1 0.7095,0.0449 2.37116,2.37116 0 0 1 0.7149,1.0606 h -0.004 a 1.4416,1.4416 0 0 1 -0.01169,0.875 c -0.14841,0.5117 -0.35151,0.7178 -0.019,1.0215 a 2.38561,2.38561 0 0 0 0.54639,0.3291 c 0,0 -1.0283,2.1787 0.5,2.4287 0.3335,0.0537 0.7148,-0.085 0.7148,-0.3281 a 1.807,1.807 0 0 1 0.1861,-1.1221 c 0.0966,-0.1895 0.4262,-0.8369 0.2841,-1.0986 a 1.62708,1.62708 0 0 1 -0.1025,-0.5977 m -1.0293,4.8359 c 0.12841,-0.2031 0.5205,-0.664 0.5205,-0.664 0.4692,-0.4903 0.8691,-0.6709 1.0518,-1.3008 0.1718,-0.5879 0.1748,-0.6367 0.3242,-1.2617 0.1582,-0.6582 -0.2744,-1.3789 -0.4346,-0.8379 -0.188,0.6269 -0.1699,1.3525 -0.3506,1.8623 a 2.3928,2.3928 0 0 1 -0.83689,1.1006 c -0.05131,0.0508 -0.09371,0.1054 -0.144,0.1552 A 1.50613,1.50613 0 0 0 30.9292,34.9233 c -0.9009,-0.3964 -1.2544,-0.5839 -1.3877,-1.416 -0.1543,-0.9472 0.1103,-1.0644 -0.2642,-1.9785 -0.0888,-0.1533 -0.2387,0.1494 -0.3227,0.3653 a 1.35883,1.35883 0 0 0 -0.0269,0.4921 8.49919,8.49919 0 0 0 0.13771,1.6582 c 0.26759,0.7676 0.83639,1.0332 1.667,1.3868 a 2.27448,2.27448 0 0 0 -0.31881,0.7617 2.57691,2.57691 0 0 0 0.4472,1.6562 2.80276,2.80276 0 0 1 0.0762,-1.9043 m 2.3696,-7.624 c 0.0196,0.0205 0.0357,0.044 0.0542,0.0654 -0.0117,-0.0771 -0.0176,-0.1601 -0.0327,-0.2343 a 1.24251,1.24251 0 0 0 -0.5552,-0.7266 0.92486,0.92486 0 0 1 -0.51949,0.125 1.552,1.552 0 0 1 0.23439,0.6182 0.86364,0.86364 0 0 1 0.8188,0.1523 m -2.4941,2.8545 a 0.31354,0.31354 0 0 0 -0.065,-0.1992 1.03322,1.03322 0 0 0 0.23491,-0.1494 0.09418,0.09418 0 0 0 0.01169,-0.1231 0.07364,0.07364 0 0 0 -0.1103,-0.0137 2.11,2.11 0 0 1 -0.8042,0.3194 0.08691,0.08691 0 0 0 -0.064,0.0996 0.08158,0.08158 0 0 0 0.0899,0.0742 3.88549,3.88549 0 0 0 0.4184,-0.1142 0.316,0.316 0 0 0 -0.0166,0.1064 c 0,0.1367 0.0693,0.248 0.1509,0.248 0.0849,0 0.1543,-0.1113 0.1543,-0.248 m 1.2012,-0.2334 a 3.97523,3.97523 0 0 1 -0.6954,-0.252 0.07427,0.07427 0 0 0 -0.104,0.044 0.088,0.088 0 0 0 0.0386,0.1133 1.82519,1.82519 0 0 0 0.2153,0.0947 0.24314,0.24314 0 0 0 -0.0966,0.2119 c 0,0.125 0.061,0.2256 0.1391,0.2256 0.0762,0 0.1382,-0.1006 0.1382,-0.2256 a 0.32123,0.32123 0 0 0 -0.0371,-0.1543 3.50475,3.50475 0 0 0 0.3545,0.1094 m -0.7983,1.0977 c -0.1954,-0.0108 -0.4307,0.0332 -0.46,1.1445 a 1.86911,1.86911 0 0 1 0.60641,-0.0215 6.28285,6.28285 0 0 1 0.07859,-0.6875 c 0.0298,-0.1309 0.0201,-0.4219 -0.225,-0.4355 m -0.0591,-0.461 a 0.3929,0.3929 0 0 0 -0.105,-0.0234 c -0.0908,-0.0078 -0.1719,0.0801 -0.0977,0.164 0.0503,0.0567 0.0694,-0.0879 0.1709,-9e-4 a 0.1373,0.1373 0 0 0 0.1621,0.0107 0.15428,0.15428 0 0 1 0.17,-0.0059 c 0.0571,0.0372 0.13421,-0.1298 0.0039,-0.1679 a 0.21786,0.21786 0 0 0 -0.1856,0.0215 c -0.0762,0.0488 -0.0566,0.0195 -0.1186,0.0019 m -14.3462,10.461 0.0151,0.0058 h 0.0205 a 0.09916,0.09916 0 0 1 -0.0356,-0.0058 m -6.5318,0.0058 h 0.0196 l 0.0151,-0.0058 a 0.10975,0.10975 0 0 1 -0.0347,0.0058 m 11.5674,10.7295 a 5.29227,5.29227 0 1 0 10.5845,0 V 45.6441 H 21.7983 v 7.2978 m 22.7735,-5.7676 c -3.3789,5.4131 -8.4571,9.21 -14.2769,10.2383 A 5.461,5.461 0 0 1 23.87641,57.4038 C 18.0747,56.3648 13.0132,52.5757 9.644,47.1743 h 11.9527 v -1.7334 h 10.98871 v 1.7334 H 44.5718 m -13.8677,5.9854 c 0.0371,-0.2149 0.0698,-0.7276 -0.4092,-0.8242 -0.5869,-0.1172 -0.9106,0.6093 -0.9243,0.6406 a 0.30468,0.30468 0 0 1 -0.19,0.1504 c -0.0678,0.0078 -0.8159,0.1347 -0.8491,0.7343 -0.0268,0.4883 0.4761,0.586 0.6934,0.6036 a 1.84727,1.84727 0 0 0 0.793,-0.1211 c 0.1157,-0.0371 0.2734,-0.0313 0.4121,-0.0616 0.061,-0.124 0.0937,-0.2783 0.1587,-0.3837 a 1.83722,1.83722 0 0 0 0.3154,-0.7383 m 0.4048,1.082 a 0.251,0.251 0 0 1 -0.0987,0.4922 1.77823,1.77823 0 0 0 -0.4643,-0.041 1.87854,1.87854 0 0 0 -0.0791,0.4619 0.2494,0.2494 0 1 1 -0.4981,-0.0264 2.66314,2.66314 0 0 1 0.0376,-0.3222 0.25526,0.25526 0 0 1 -0.0395,0.0117 2.2904,2.2904 0 0 1 -0.98339,0.1445 C 28.2505,54.8999 27.7998,54.4585 27.8325,53.8335 a 1.20309,1.20309 0 0 1 0.9214,-1.0518 l -1.7207,-2.2138 -1.7173,2.2138 a 1.20007,1.20007 0 0 1 0.9194,1.0518 c 0.0337,0.625 -0.416,1.0664 -1.14989,1.1289 a 2.29286,2.29286 0 0 1 -0.98391,-0.1445 0.24228,0.24228 0 0 1 -0.03709,-0.0117 2.586,2.586 0 0 1 0.03519,0.3222 0.25164,0.25164 0 0 1 -0.2358,0.2637 0.255,0.255 0 0 1 -0.2637,-0.2373 1.80661,1.80661 0 0 0 -0.0762,-0.4619 1.79132,1.79132 0 0 0 -0.4663,0.041 0.25090144,0.25090144 0 0 1 -0.0977,-0.4922 3.06665,3.06665 0 0 1 0.3179,-0.043 0.33134,0.33134 0 0 0 -0.0215,-0.0351 2.35566,2.35566 0 0 1 -0.3833,-0.9199 1.09434,1.09434 0 0 1 0.8033,-1.3965 1.16131,1.16131 0 0 1 1.24411,0.6318 l 1.79689,-2.3174 -1.043,-1.3447 v 0 l -1.7881,1.3916 -0.3467,-0.4492 0.8941,-0.6953 -0.3477,-0.4473 -0.894,0.6973 -0.6944,-0.8955 0.4488,-0.3487 0.3457,0.4493 0.4463,-0.3516 -0.3477,-0.4453 0.4463,-0.3477 0.6934,0.8936 0.4487,-0.3467 -0.6943,-0.8965 0.394,-0.3057 2.3545,3.0342 2.3579,-3.0342 0.3931,0.3057 -0.6944,0.8965 0.4463,0.3467 0.6948,-0.8936 0.4473,0.3477 -0.3477,0.4453 0.4483,0.3516 0.3457,-0.4493 0.4468,0.3487 -0.6958,0.8955 -0.8926,-0.6973 -0.3457,0.4473 0.8916,0.6953 -0.3467,0.4492 -1.7876,-1.3916 v 0 l -1.0439,1.3447 1.7973,2.3174 a 1.16169,1.16169 0 0 1 1.2447,-0.6318 1.09534,1.09534 0 0 1 0.8032,1.3965 2.34671,2.34671 0 0 1 -0.3833,0.9199 c -0.0069,0.0117 -0.0137,0.0234 -0.0215,0.0351 a 3.02742,3.02742 0 0 1 0.3179,0.043 M 25.7373,53.8608 C 25.7041,53.2612 24.957,53.1343 24.8882,53.1265 a 0.31387,0.31387 0 0 1 -0.191,-0.1504 c -0.0126,-0.0313 -0.3369,-0.7578 -0.9233,-0.6406 -0.48,0.0966 -0.4453,0.6093 -0.4092,0.8242 a 1.84306,1.84306 0 0 0 0.3155,0.7383 c 0.0659,0.1054 0.0986,0.2597 0.1606,0.3837 0.1367,0.0303 0.2944,0.0245 0.4102,0.0616 a 1.85406,1.85406 0 0 0 0.7929,0.1211 c 0.2173,-0.0176 0.7202,-0.1153 0.6934,-0.6036 m -1.85689,6.2461 A 0.84717,0.84717 0 0 0 23.5903,59.9907 c -0.1738,-0.0283 -0.58589,-0.0058 -0.6865,0.5928 a 0.56181,0.56181 0 0 0 0.49561,0.6836 c 0.26949,0.0488 0.27879,0.04 0.314,-0.1758 z M 24.0019,59.3833 C 24.082,58.9136 24.0483,58.8745 23.604,58.773 l 0.0298,-0.1797 1.5898,0.2695 -0.0303,0.1797 c -0.4023,-0.0401 -0.4458,-0.0156 -0.5244,0.4531 l -0.2451,1.4512 c -0.081,0.4746 -0.04739,0.5058 0.3218,0.5937 l -0.0313,0.1797 -1.5805,-0.2676 c -0.6363,-0.1074 -1.0313,-0.4521 -0.9375,-1.0107 0.0898,-0.5391 0.5678,-0.7539 1.1133,-0.7402 a 1.853,1.853 0 0 1 0.2905,0.0341 l 0.3169,0.1524 z M 20.209,59.1831 20.0127,59.1099 a 0.82334,0.82334 0 0 0 -0.4268,-0.0596 0.58219,0.58219 0 0 0 -0.4267,0.4121 0.56829,0.56829 0 0 0 0.36321,0.7793 c 0.251,0.0908 0.26659,0.0899 0.32819,-0.082 z m 0.25,-0.6855 c 0.1631,-0.4473 0.1382,-0.4903 -0.231,-0.6524 l 0.061,-0.1719 1.4541,0.5333 -0.0634,0.1699 c -0.3931,-0.1172 -0.4405,-0.1006 -0.6045,0.3467 l -0.5054,1.3818 c -0.166,0.4512 -0.1387,0.4922 0.2173,0.6484 l -0.0615,0.1719 -1.5249,-0.5605 a 1.43391,1.43391 0 0 1 -0.6382,-0.3946 0.70383,0.70383 0 0 1 -0.0928,-0.6865 0.78614,0.78614 0 0 1 0.8442,-0.4795 C 19.2895,58.6489 19.2007,58.2847 19.1401,58.0523 A 2.45589,2.45589 0 0 0 18.9536,57.52 1.06021,1.06021 0 0 0 18.7148,57.2339 l 0.0767,-0.1543 0.2441,0.0898 c 0.5406,0.2071 0.649,0.42 0.7339,0.6993 0.0742,0.25 0.1226,0.6074 0.1631,0.8173 0.0264,0.1553 0.0669,0.1983 0.25,0.2637 l 0.0977,0.0352 z m -3.6035,-1.1094 -0.628,-0.3691 -0.1592,0.9746 0.01711,0.0117 z M 16.7153,56.1489 16.603,56.0962 c -0.168,-0.0732 -0.2173,-0.0518 -0.2651,0.2471 l -0.063,0.4121 0.7666,0.4541 c 0.0591,-0.0459 0.2251,-0.1895 0.373,-0.3242 0.1504,-0.1368 0.1416,-0.2032 -0.0048,-0.3135 l -0.1236,-0.086 0.09431,-0.1591 1.01219,0.6006 -0.0928,0.1562 c -0.252,-0.1094 -0.35739,-0.1582 -0.7319,0.1191 l -1.9854,1.4659 -0.2339,-0.0772 0.3721,-2.5683 a 0.514,0.514 0 0 0 -0.2754,-0.6231 l 0.0918,-0.1582 1.271,0.752 z m -2.5078,-1.0498 c 0.3062,-0.3691 0.3525,-0.375 0.708,-0.1123 l 0.1157,-0.1396 -1.94479,-1.6162 c -0.11031,0.0713 -0.5,0.3877 -0.63231,0.499 l 0.1387,0.1406 a 1.1687,1.1687 0 0 1 0.4502,-0.2021 0.79722,0.79722 0 0 1 0.5078,0.2441 1.08523,1.08523 0 0 1 0.3139,0.335 c 0.0396,0.0957 -0.0298,0.2314 -0.1914,0.4238 l -0.4111,0.498 -0.3301,-0.2734 c -0.29,-0.2422 -0.2881,-0.2646 -0.1162,-0.5527 l -0.14549,-0.1211 -0.61721,0.7461 0.1465,0.122 c 0.2505,-0.2236 0.2773,-0.2373 0.5669,0.0039 l 0.3306,0.2764 -0.5562,0.6709 c -0.1025,0.126 -0.1084,0.1211 -0.2485,0.0039 l -0.19,-0.1572 C 11.8638,55.689 11.7856,55.5581 11.7768,55.478 a 0.8397,0.8397 0 0 1 0.148,-0.4453 l -0.1519,-0.1113 c -0.1928,0.2725 -0.3716,0.5195 -0.4467,0.6191 l 1.82121,1.5137 0.11669,-0.1416 c -0.2924,-0.2685 -0.2963,-0.3144 0.0098,-0.6846 z m -2.5669,-1.9668 c 0.1895,-0.2549 0.4253,-0.5586 0.4707,-0.6513 a 1.58709,1.58709 0 0 0 -0.397,-0.7842 c -0.478,-0.5235 -1.0815,-0.6524 -1.5024,-0.2656 a 1.04718,1.04718 0 0 0 -0.0977,1.2714 l 0.0664,0.1602 A 0.54425,0.54425 0 0 1 10.12941,53.5112 0.4282,0.4282 0 0 1 9.5097,53.4663 0.76023,0.76023 0 0 1 9.5327,52.5308 L 9.37841,52.3999 C 9.1689,52.6528 9.019,52.8257 8.9062,52.9644 a 2.82081,2.82081 0 0 0 0.3697,0.5957 c 0.5034,0.5527 1.0634,0.5879 1.458,0.2265 0.3237,-0.3008 0.2173,-0.747 0.0717,-1.125 l -0.0708,-0.1748 a 0.639,0.639 0 0 1 0.1075,-0.7607 0.45022,0.45022 0 0 1 0.6538,0.082 1.08464,1.08464 0 0 1 -0.002,1.1836 z M 7.8847,50.562 C 7.498,50.8472 7.4531,50.8296 7.1943,50.521 l -0.147,0.1074 0.9278,1.2657 0.147,-0.1075 C 7.9038,51.4448 7.9009,51.3999 8.29,51.1138 l 1.1822,-0.8692 c 0.3833,-0.2841 0.4316,-0.2705 0.6914,0.0401 l 0.1474,-0.1074 -0.9267,-1.2657 -0.147,0.1075 c 0.2173,0.3398 0.2143,0.3906 -0.167,0.6728 z M 7.624,47.4409 C 7.9482,47.2593 8.0122,47.1636 7.8613,46.8921 A 1.05229,1.05229 0 0 0 6.2651,46.562 c -0.727,0.4043 -0.8574,0.9297 -0.5254,1.5283 0.1006,0.1817 0.1499,0.2432 0.1856,0.2549 0.0356,0.0098 0.1089,-0.0176 0.2182,-0.0771 z m -2.1313,0.6748 a 2.00652,2.00652 0 0 1 -0.3101,-1.3642 1.25476,1.25476 0 0 1 0.626,-0.8008 c 0.9643,-0.5371 1.7959,-0.0039 2.3076,0.918 l 0.6797,1.2226 -0.1602,0.0899 C 8.4126,47.8296 8.3652,47.8101 7.9502,48.0425 L 6.668,48.7573 C 6.2475,48.9907 6.2441,49.0366 6.4043,49.3814 L 6.2451,49.4683 Z M 4.3467,44.0405 C 3.9013,44.2222 3.8638,44.1948 3.687,43.8316 l -0.168,0.0703 0.5928,1.4521 0.168,-0.0674 C 4.1513,44.9019 4.1601,44.8569 4.6045,44.6714 l 1.3603,-0.5576 c 0.4385,-0.1787 0.4839,-0.1553 0.6597,0.207 l 0.168,-0.0693 -0.5938,-1.4512 -0.1689,0.0703 c 0.1284,0.3828 0.1147,0.4297 -0.3238,0.6113 z M 3.0932,42.8208 3.2671,42.77 C 3.1772,42.3599 3.1982,42.3198 3.6606,42.187 L 4.6045,41.9155 A 1.23134,1.23134 0 0 0 5.4936,41.2935 1.43878,1.43878 0 0 0 5.4848,40.3687 1.32539,1.32539 0 0 0 4.9057,39.5523 1.47368,1.47368 0 0 0 3.7768,39.5259 L 3.4443,39.6226 A 4.78085,4.78085 0 0 1 2.6567,39.7964 C 2.498,39.814 2.3911,39.7017 2.3179,39.4683 L 2.1421,39.5161 2.4936,40.7378 2.6699,40.687 C 2.5986,40.397 2.6211,40.2398 2.7646,40.1694 a 4.504,4.504 0 0 1 0.7583,-0.2705 l 0.2827,-0.083 c 0.6617,-0.1914 1.1773,-0.1113 1.3345,0.4336 0.1431,0.502 -0.20069,0.8574 -0.8823,1.0547 L 3.4726,41.5327 C 3.0112,41.6636 2.9678,41.6362 2.8335,41.2593 L 2.6587,41.312 Z m -1.60979,-7.415 2.01219,0.6035 -1.7783,1.1582 0.1445,1.0762 0.1787,-0.0235 C 2.0078,37.771 2.0097,37.7319 2.5542,37.6997 l 0.9629,-0.0654 a 5.70643,5.70643 0 0 1 0.7436,-0.0215 c 0.1729,0.0176 0.2559,0.0986 0.30571,0.3613 L 4.7451,37.9507 4.584,36.7358 4.4033,36.7612 c 0.0225,0.3184 -0.02489,0.4502 -0.19089,0.4864 A 6.75272,6.75272 0 0 1 3.3945,37.355 L 2.4228,37.4468 2.4219,37.4331 4.4575,36.187 4.436,36.021 1.9702,35.2808 1.9673,35.2612 3.6763,35.0054 c 0.4394,-0.0645 0.4614,-0.041 0.5463,0.4004 L 4.4023,35.3823 4.1909,33.7886 4.0093,33.812 c 0.03511,0.4551 0.0166,0.4707 -0.418,0.542 l -1.542,0.2461 C 1.6147,34.6714 1.5903,34.648 1.50541,34.1978 L 1.3242,34.2241 Z M 2.5849,31.4839 A 0.71317,0.71317 0 1 0 3.3257,32.1802 0.718,0.718 0 0 0 2.5849,31.4839 M 3.06,29.48 3.1142,28.7515 2.168,29.0396 v 0.0195 z M 4.1079,28.8081 4.105,28.6851 C 4.1001,28.5015 4.0566,28.4663 3.768,28.5542 l -0.3999,0.127 -0.0683,0.8877 c 0.0703,0.0341 0.2715,0.1201 0.4565,0.1923 0.1875,0.0733 0.2427,0.0381 0.2764,-0.1425 L 4.0576,29.4712 4.2383,29.4839 4.14941,30.6597 3.9687,30.647 C 3.9565,30.3696 3.9526,30.2534 3.5381,30.0386 L 1.352,28.898 1.3183,28.6538 3.7827,27.8569 c 0.3686,-0.123 0.3911,-0.2509 0.438,-0.5214 l 0.1806,0.0117 -0.1118,1.4765 z M 2.957,23.8511 C 2.62841,23.8374 2.4028,23.8169 2.1572,23.7905 a 3.86669,3.86669 0 0 0 -0.2974,0.8985 1.65239,1.65239 0 0 0 1.2149,2.0898 1.5176,1.5176 0 0 0 1.77,-1.4394 4.41,4.41 0 0 0 0.0415,-0.9795 7.36987,7.36987 0 0 0 -0.79,-0.3916 l -0.0454,0.1855 c 0.4482,0.332 0.6587,0.6289 0.5805,1.0508 C 4.522,25.8091 3.9282,26.1577 3.1103,26.0054 2.4067,25.8765 1.96241,25.4214 2.083,24.7632 A 0.82225,0.82225 0 0 1 2.94241,24.0415 Z M 4.2641,22.3589 4.477,21.6616 3.4917,21.7349 3.4844,21.7534 Z M 5.4346,21.9351 5.457,21.812 c 0.0337,-0.1797 0,-0.2256 -0.2983,-0.2012 L 4.7402,21.648 4.48141,22.4995 c 0.05909,0.0469 0.23879,0.1758 0.40089,0.2871 0.168,0.1123 0.231,0.0908 0.3023,-0.0781 L 5.2397,22.5679 5.4136,22.6235 5.0708,23.7505 4.896,23.6978 C 4.9453,23.4253 4.9673,23.3101 4.6098,23.0073 L 2.7251,21.418 2.7446,21.1729 5.3247,20.9331 a 0.5109,0.5109 0 0 0 0.5395,-0.4116 l 0.1748,0.0522 -0.43159,1.4121 z m 0.6015,-3.1675 c 0.3374,0.1543 0.4531,0.1474 0.5825,-0.1367 0.2876,-0.6411 0,-1.1719 -0.6875,-1.4825 -0.7583,-0.3403 -1.2583,-0.1323 -1.541,0.4922 -0.0849,0.189 -0.1045,0.2637 -0.0918,0.2998 0.0152,0.0357 0.07811,0.0782 0.1919,0.1294 z M 4.2256,17.457 a 1.983,1.983 0 0 1 0.90481,-1.061 1.24573,1.24573 0 0 1 1.01509,0.0225 c 1.0063,0.4546 1.0757,1.4423 0.6421,2.4047 l -0.5728,1.275 -0.167,-0.0748 C 6.1968,19.6328 6.1821,19.584 5.7505,19.3892 L 4.4121,18.7857 C 3.9736,18.5855 3.9341,18.6104 3.75441,18.9434 L 3.5893,18.8691 Z m 3.2319,-1.6049 c 0.4106,0.247 0.4214,0.2924 0.2163,0.6865 l 0.1558,0.0942 1.3081,-2.1665 C 9.0527,14.3672 8.6802,14.0264 8.5527,13.9121 l -0.1186,0.1568 a 1.17863,1.17863 0 0 1 0.2636,0.4199 0.7976,0.7976 0 0 1 -0.1645,0.5376 1.11479,1.11479 0 0 1 -0.2857,0.3603 C 8.1606,15.4409 8.0156,15.3926 7.8003,15.2598 L 7.25,14.9253 7.4722,14.5581 C 7.6665,14.2363 7.68941,14.2344 7.9995,14.3613 L 8.0972,14.1987 7.2695,13.6982 7.1719,13.8584 c 0.2568,0.2153 0.2714,0.2412 0.0761,0.5659 L 7.0268,14.791 6.2827,14.3399 C 6.1435,14.2564 6.14741,14.2505 6.2412,14.0938 L 6.3686,13.8823 C 6.5298,13.6152 6.64741,13.5195 6.7285,13.5 a 0.80115,0.80115 0 0 1 0.459,0.0796 L 7.27441,13.4131 C 6.978,13.2617 6.7055,13.1201 6.5972,13.061 L 5.374,15.0899 5.5303,15.1851 C 5.7505,14.854 5.7969,14.8438 6.208,15.0938 Z m 0,0 c 0.4106,0.247 0.4214,0.2924 0.2163,0.6865 l 0.1558,0.0942 1.3081,-2.1665 C 9.0527,14.3672 8.6802,14.0264 8.5527,13.9121 l -0.1186,0.1568 a 1.17863,1.17863 0 0 1 0.2636,0.4199 0.7976,0.7976 0 0 1 -0.1645,0.5376 1.11479,1.11479 0 0 1 -0.2857,0.3603 C 8.1606,15.4409 8.0156,15.3926 7.8003,15.2598 L 7.25,14.9253 7.4722,14.5581 C 7.6665,14.2363 7.68941,14.2344 7.9995,14.3613 L 8.0972,14.1987 7.2695,13.6982 7.1719,13.8584 c 0.2568,0.2153 0.2714,0.2412 0.0761,0.5659 L 7.0268,14.791 6.2827,14.3399 C 6.1435,14.2564 6.14741,14.2505 6.2412,14.0938 L 6.3686,13.8823 C 6.5298,13.6152 6.64741,13.5195 6.7285,13.5 a 0.80115,0.80115 0 0 1 0.459,0.0796 L 7.27441,13.4131 C 6.978,13.2617 6.7055,13.1201 6.5972,13.061 L 5.374,15.0899 5.5303,15.1851 C 5.7505,14.854 5.7969,14.8438 6.208,15.0938 Z m 1.7212,-6.1602 0.917,1.894 -2.0547,-0.5327 -0.6953,0.836 0.1401,0.1162 c 0.3081,-0.3262 0.3369,-0.3535 0.731,0.0268 l 0.6953,0.6685 a 5.20987,5.20987 0 0 1 0.5195,0.5342 c 0.105,0.1386 0.1011,0.2563 -0.06,0.4712 l 0.1401,0.1142 0.7832,-0.9399 -0.1401,-0.1172 C 9.9355,12.9951 9.8061,13.0513 9.6689,12.9507 A 5.62716,5.62716 0 0 1 9.0347,12.4209 L 8.3115,11.7661 8.3208,11.7554 10.6123,12.418 10.7207,12.2871 9.5996,9.9663 9.6118,9.9512 10.956,11.0415 c 0.3428,0.2793 0.3409,0.3125 0.0728,0.6734 l 0.14061,0.1157 1.02879,-1.2324 -0.1411,-0.1177 c -0.312,0.3315 -0.334,0.3296 -0.6816,0.0561 L 10.1548,9.5649 C 9.8061,9.2915 9.8071,9.2603 10.0796,8.8936 L 9.94041,8.7774 Z m 2.8784,-1.853 C 11.73341,7.4805 11.7451,7.436 12.02541,7.146 L 11.9033,7.0107 10.7417,8.0625 10.8642,8.1973 c 0.3179,-0.252 0.3633,-0.2598 0.6851,0.0986 l 0.9849,1.0933 c 0.3173,0.352 0.31,0.4023 0.0307,0.6924 l 0.1206,0.1347 1.1617,-1.0522 -0.1207,-0.1358 C 13.4087,9.2798 13.3589,9.2817 13.039,8.9297 Z M 14.4336,7.21 15.0303,6.7949 14.21041,6.2407 14.1948,6.2515 Z M 15.6152,7.6011 15.708,7.52 C 15.8462,7.3994 15.8462,7.3438 15.5981,7.1773 l -0.3525,-0.231 -0.731,0.5078 c 0.0201,0.0747 0.0791,0.2857 0.1392,0.4756 0.0644,0.1919 0.1255,0.2129 0.28561,0.125 L 15.0698,7.981 15.1733,8.1299 14.2085,8.8018 14.105,8.6528 c 0.205,-0.185 0.292,-0.2597 0.1982,-0.7172 l -0.4995,-2.419 0.168,-0.1797 2.1748,1.4097 a 0.50624,0.50624 0 0 0 0.6777,0.0093 l 0.1045,0.1504 -1.21,0.8447 z M 17.896,4.648 A 0.72071,0.72071 0 0 0 16.9326,4.3237 0.7329,0.7329 0 0 0 16.6323,5.3032 0.71189,0.71189 0 1 0 17.896,4.648 m 4.0288,0.1518 C 21.9053,4.6221 21.8457,4.167 21.8081,3.939 L 21.6167,3.9844 A 1.4178,1.4178 0 0 1 21.54341,4.5469 C 21.4902,4.6753 21.3481,4.7583 21.1079,4.8418 A 0.7741,0.7741 0 0 1 20.7178,4.9053 C 20.6152,4.8872 20.54,4.7661 20.457,4.5283 L 19.9868,3.1553 C 19.8315,2.6992 19.8603,2.6611 20.2632,2.4961 l -0.0581,-0.1724 -1.5132,0.5201 0.06,0.1713 c 0.3892,-0.1064 0.4327,-0.0952 0.5899,0.3609 l 0.4731,1.3862 c 0.1582,0.4546 0.1372,0.4981 -0.2724,0.6651 l 0.06,0.1709 z M 21.7847,1.8145 21.8169,1.9912 C 22.23,1.9497 22.2666,1.9775 22.3467,2.4536 l 0.163,0.9678 a 1.21512,1.21512 0 0 0 0.5142,0.957 1.45911,1.45911 0 0 0 0.9199,0.0982 1.3223,1.3223 0 0 0 0.8731,-0.4829 1.481,1.481 0 0 0 0.1553,-1.1211 L 24.9155,2.5322 a 4.52924,4.52924 0 0 1 -0.081,-0.8051 c 0,-0.1597 0.1225,-0.2525 0.3657,-0.3003 L 25.17041,1.2471 23.9209,1.457 23.9507,1.6372 c 0.2954,-0.0381 0.4492,0.0039 0.5,0.1524 a 4.7421,4.7421 0 0 1 0.1845,0.788 l 0.0464,0.2896 C 24.79641,3.5469 24.6548,4.0523 24.0976,4.145 23.5859,4.2324 23.272,3.8482 23.1533,3.1484 L 23.02,2.3394 C 22.94241,1.8643 22.9746,1.8252 23.3608,1.7349 L 23.3305,1.5547 Z M 28.9062,2.145 C 28.8755,1.7349 28.8608,1.4736 28.8447,1.3228 A 3.80945,3.80945 0 0 0 27.9057,1.166 1.65984,1.65984 0 0 0 26.0093,2.6909 c -0.0181,0.898 0.70411,1.5117 1.7954,1.5337 A 4.59165,4.59165 0 0 0 28.9062,4.0659 1.61442,1.61442 0 0 1 28.8745,3.6621 l 0.0059,-0.3144 c 0.0078,-0.3169 0.04049,-0.3286 0.28759,-0.3575 l 0.0019,-0.1816 -1.5054,-0.0298 -0.0039,0.1807 c 0.5264,0.042 0.5445,0.0752 0.5381,0.375 l -0.0078,0.3769 C 28.187,3.9649 27.9907,3.9946 27.853,3.9927 27.082,3.9756 26.7646,3.2998 26.7788,2.6211 26.79441,1.7681 27.2656,1.3897 27.8115,1.3994 a 0.84606,0.84606 0 0 1 0.89891,0.7544 z m 2.0977,1.6548 c -0.0806,0.3609 -0.0532,0.4736 0.251,0.541 0.68451,0.1533 1.146,-0.2363 1.309,-0.9736 C 32.7446,2.5537 32.4385,2.1045 31.77341,1.9566 31.5713,1.9111 31.4912,1.9058 31.46041,1.9263 31.4287,1.9458 31.39941,2.0191 31.3725,2.1411 Z m 0.915,-2.0434 a 1.97633,1.97633 0 0 1 1.2198,0.6723 1.25714,1.25714 0 0 1 0.1835,1.0015 C 33.0825,4.5107 32.13041,4.7783 31.102,4.5479 L 29.7388,4.2422 29.7793,4.0649 c 0.41111,0.0665 0.4565,0.0425 0.56,-0.4208 L 30.6582,2.207 c 0.105,-0.4692 0.0713,-0.5029 -0.2891,-0.6098 l 0.0396,-0.1787 z m 2.5918,0.6704 -0.0732,0.1674 c 0.3725,0.1885 0.3891,0.2325 0.1997,0.6739 L 34.248,4.1709 a 1.23349,1.23349 0 0 0 -0.081,1.0855 1.432,1.432 0 0 0 0.7212,0.5771 1.2924,1.2924 0 0 0 0.9956,0.0674 1.46336,1.46336 0 0 0 0.7368,-0.8569 L 36.7558,4.7271 A 4.77379,4.77379 0 0 1 37.1201,4.0044 C 37.206,3.8716 37.3603,3.8618 37.5893,3.9531 l 0.0723,-0.1689 -1.1626,-0.5 -0.0723,0.1665 c 0.2686,0.1299 0.3755,0.248 0.336,0.3994 a 4.2316,4.2316 0 0 1 -0.2705,0.7642 l -0.11479,0.269 C 36.105,5.5166 35.7158,5.8652 35.1963,5.6436 34.7182,5.438 34.6606,4.9439 34.94141,4.291 L 35.2651,3.5391 c 0.19,-0.4434 0.23731,-0.4585 0.61131,-0.3257 L 35.9487,3.0483 Z M 40.293,6.96 A 5.97628,5.97628 0 0 1 40.7905,6.2832 C 40.89941,6.166 41.0513,6.1831 41.2827,6.3291 L 41.3823,6.1758 40.3066,5.46 40.206,5.6118 c 0.2637,0.19 0.3467,0.3228 0.2803,0.4673 A 5.6267,5.6267 0 0 1 40.0566,6.8018 L 39.6826,7.3657 39.67041,7.3579 39.2783,4.7744 38.4399,4.2168 38.3393,4.3667 c 0.3526,0.2681 0.3848,0.4077 0.0967,0.8403 L 37.98341,5.8916 A 6.33477,6.33477 0 0 1 37.4917,6.563 C 37.3828,6.6782 37.227,6.6685 36.9966,6.5215 L 36.894,6.6743 37.9658,7.3872 38.06641,7.2368 C 37.8037,7.0449 37.7236,6.9043 37.7939,6.7637 a 6.23887,6.23887 0 0 1 0.4278,-0.7134 l 0.4838,-0.7266 0.004,0.003 0.396,2.8589 0.2597,0.1738 z m 1.4155,1.3222 c -0.5405,0.5801 -0.6807,1.251 -0.2818,1.6255 0.3033,0.2847 0.8101,0.3047 1.4009,-0.3261 0.4751,-0.5079 0.71881,-1.2339 0.292,-1.6363 -0.314,-0.2929 -0.8906,-0.2192 -1.4111,0.3369 m 1.6128,-0.4673 a 1.49657,1.49657 0 0 1 0.16311,2.1875 1.53065,1.53065 0 0 1 -2.251,0.0455 1.51093,1.51093 0 0 1 -0.18611,-2.1812 1.56092,1.56092 0 0 1 2.274,-0.0518 m 1.8403,4.0645 a 0.71306,0.71306 0 1 0 -1.0127,-0.0845 0.72526,0.72526 0 0 0 1.0127,0.0845 m 1.186,1.52 0.1363,0.2061 a 0.50763,0.50763 0 1 0 0.8506,-0.5406 C 47.1943,12.8525 47.1772,12.8486 47.0469,12.9351 Z M 46.165,13.5215 45.56741,13.916 C 45.206,14.1572 45.2373,14.3237 45.373,14.5293 a 0.54085,0.54085 0 0 0 0.7901,0.1465 0.64754,0.64754 0 0 0 0.1157,-0.9815 z m 0.2588,-0.9619 c 0.396,-0.2627 0.396,-0.3086 0.20661,-0.6431 l 0.15279,-0.1011 0.8999,1.3623 c 0.31831,0.4839 0.3696,0.9161 -0.0254,1.1788 a 0.72721,0.72721 0 0 1 -0.8735,-0.1783 l -0.0098,0.0069 a 0.79744,0.79744 0 0 1 -0.1836,1.0903 c -0.5698,0.3784 -1.1035,-0.1587 -1.4292,-0.6528 l -0.8091,-1.2271 0.15091,-0.1006 c 0.24709,0.3277 0.29639,0.3413 0.69139,0.0806 z m 1.2544,4.0249 0.32321,0.6533 0.66749,-0.731 -0.0097,-0.018 z m -0.5601,1.1118 0.0674,0.1074 c 0.0977,0.1548 0.1538,0.1626 0.3555,-0.0605 l 0.2793,-0.315 -0.395,-0.7983 c -0.0762,0.0088 -0.2945,0.0376 -0.4888,0.0669 -0.2007,0.0342 -0.229,0.0932 -0.167,0.2651 l 0.0562,0.1411 -0.1641,0.0816 -0.5215,-1.0576 0.1612,-0.0801 c 0.1513,0.2309 0.2143,0.3296 0.6806,0.3017 l 2.46051,-0.1386 0.15429,0.1919 -1.712,1.9482 A 0.51417,0.51417 0 0 0 47.772,19.022 l -0.1597,0.0801 -0.6563,-1.3228 z m 3.5982,2.1382 0.0884,0.2392 a 0.68873,0.68873 0 0 1 0.0659,0.4932 c -0.0405,0.0938 -0.1323,0.1831 -0.36619,0.3252 L 50.584,21.064 c 0.2285,-0.1133 0.5996,-0.2852 0.813,-0.3643 L 51.3603,20.6006 C 51.2568,20.563 51.2231,20.5493 51.1689,20.4019 l -0.7021,-1.899 c -0.0547,-0.145 -0.0615,-0.1982 0.0058,-0.2998 L 50.435,18.1065 c -0.2143,0.0712 -0.5244,0.1547 -0.8652,0.2583 l 0.063,0.1709 a 0.96774,0.96774 0 0 1 0.4624,0.0161 c 0.0967,0.0395 0.1997,0.1406 0.332,0.5019 l 0.0523,0.1406 -1.8335,0.6817 c -0.4453,0.1665 -0.4888,0.1406 -0.66459,-0.2588 l -0.17181,0.0644 0.5756,1.5464 0.1709,-0.062 c -0.1342,-0.4345 -0.1172,-0.4829 0.3262,-0.6484 z m -0.6802,2.7861 0.1826,0.707 0.8033,-0.5791 -0.0054,-0.0166 z m -0.7764,0.9746 0.0455,0.1172 c 0.0629,0.1699 0.11421,0.1924 0.3584,0.0137 l 0.33881,-0.249 -0.22311,-0.8623 c -0.0752,-0.0098 -0.2945,-0.0254 -0.4922,-0.0352 -0.2031,-0.0078 -0.24269,0.0439 -0.2153,0.2246 l 0.0239,0.1484 -0.1758,0.044 -0.2944,-1.1397 0.1767,-0.0449 c 0.0996,0.2559 0.14021,0.3653 0.6006,0.4356 l 2.438,0.3711 0.1094,0.2226 -2.0742,1.5508 a 0.51284,0.51284 0 0 0 -0.2471,0.6348 l -0.1758,0.0449 -0.3691,-1.4307 z m 0.3565,2.8936 c 0.9551,0.2226 2.249,0.583 2.3677,0.624 0.4326,0.1484 0.5254,0.2051 0.6103,0.5273 l 0.1797,-0.0253 -0.18749,-1.1846 -0.17871,0.0264 0.0049,0.125 c 0.0117,0.2304 -0.0635,0.2558 -0.3023,0.207 -0.2314,-0.0479 -1.2783,-0.249 -1.6123,-0.336 l 1.4405,-0.9072 c 0.1923,-0.124 0.2636,-0.1299 0.31291,0.0488 l 0.04249,0.1573 0.1807,-0.0293 -0.2358,-1.4785 -0.1797,0.0293 a 0.503,0.503 0 0 1 -0.2964,0.5878 l -2.1851,1.3809 z m 1.4927,2.1631 0.0473,0.7265 0.8965,-0.4199 -0.0019,-0.0195 z m -0.9434,0.8144 0.0215,0.1211 c 0.0327,0.1787 0.0801,0.21 0.3506,0.0791 l 0.3794,-0.1807 -0.0601,-0.8925 c -0.0742,-0.0176 -0.2856,-0.0762 -0.477,-0.1221 -0.1978,-0.0449 -0.2481,-0.002 -0.2549,0.1807 l -0.002,0.1504 -0.18159,0.0136 -0.08111,-1.1758 0.1836,-0.0136 c 0.0503,0.2705 0.0703,0.3867 0.5117,0.539 l 2.3272,0.8155 0.0669,0.2363 -2.3252,1.1416 a 0.51492,0.51492 0 0 0 -0.3574,0.581 l -0.1826,0.0108 -0.0997,-1.4746 z m 1.4487,3.4707 a 0.71317,0.71317 0 1 0 -0.7109,-0.7246 0.7147,0.7147 0 0 0 0.7109,0.7246 M 49.73,36.2573 c 0.1699,0.0557 0.60741,0.1944 0.8276,0.2559 l 0.0425,-0.1895 a 1.44787,1.44787 0 0 1 -0.479,-0.3066 0.66129,0.66129 0 0 1 -0.0811,-0.5205 0.76537,0.76537 0 0 1 0.10741,-0.3799 c 0.06059,-0.085 0.19879,-0.1035 0.45269,-0.0752 l 1.4389,0.1543 c 0.4771,0.0518 0.5,0.0928 0.4781,0.5283 l 0.1816,0.0196 0.1699,-1.5938 -0.1806,-0.0176 c -0.0689,0.3985 -0.0977,0.4336 -0.5777,0.3828 l -1.4521,-0.1572 c -0.478,-0.0498 -0.5069,-0.0849 -0.4859,-0.5283 l -0.1806,-0.0205 z m 1.6831,2.791 c 0.4702,0.0997 0.4878,0.1446 0.4287,0.5411 l 0.1797,0.04 0.3227,-1.5342 -0.1767,-0.039 c -0.1104,0.3896 -0.14409,0.4238 -0.6143,0.3222 l -1.4341,-0.3066 c -0.4643,-0.0967 -0.4892,-0.1426 -0.4316,-0.541 l -0.1768,-0.0391 -0.3261,1.5342 0.1796,0.0381 c 0.1099,-0.3887 0.1475,-0.4199 0.6123,-0.3203 z m -1.3394,2.9297 -0.0801,0.2344 a 0.50785,0.50785 0 1 0 0.9483,0.3428 C 51.022,42.313 51.0146,42.2964 50.8657,42.2466 Z M 49.8642,41.9077 49.1865,41.6782 C 48.77341,41.5386 48.6621,41.6665 48.583,41.898 a 0.54662,0.54662 0 0 0 0.3686,0.7187 c 0.4385,0.1484 0.7159,-0.1289 0.8453,-0.5127 z m 0.9165,-0.3838 c 0.4483,0.1514 0.4869,0.1231 0.6343,-0.2324 l 0.1719,0.0576 -0.52149,1.5508 c -0.186,0.5488 -0.49411,0.8555 -0.94431,0.7031 a 0.73256,0.73256 0 0 1 -0.395,-0.8007 l -0.0142,-0.002 a 0.79484,0.79484 0 0 1 -0.9697,0.5215 c -0.647,-0.2207 -0.5513,-0.9697 -0.36179,-1.5332 l 0.47019,-1.3916 0.17181,0.0556 C 48.916,40.8511 48.9336,40.898 49.3843,41.0523 Z m -2.9414,3.585 C 47.4087,44.898 47.3945,44.853 47.5688,44.4439 l -0.1621,-0.0811 -1.1299,2.2666 c 0.0918,0.0869 0.4898,0.3955 0.626,0.501 l 0.1035,-0.1641 a 1.25619,1.25619 0 0 1 -0.2968,-0.3965 0.80125,0.80125 0 0 1 0.124,-0.5498 1.07549,1.07549 0 0 1 0.25491,-0.3818 c 0.081,-0.0625 0.23139,-0.0234 0.45649,0.0908 l 0.5747,0.2881 -0.1924,0.3828 c -0.167,0.3379 -0.1909,0.3418 -0.5107,0.2412 l -0.084,0.167 0.8652,0.4336 0.085,-0.168 C 48.0102,46.8784 47.9922,46.855 48.1621,46.5171 l 0.1899,-0.3838 0.7793,0.3916 c 0.146,0.0723 0.14211,0.0762 0.06111,0.2402 L 49.082,46.9878 c -0.14059,0.2793 -0.251,0.3809 -0.3281,0.4082 a 0.80489,0.80489 0 0 1 -0.4663,-0.042 l -0.0733,0.1748 c 0.3096,0.125 0.5918,0.2422 0.7037,0.291 l 1.0585,-2.1172 -0.1616,-0.081 c -0.1958,0.3447 -0.2392,0.3603 -0.6679,0.1445 z m -1.708,4.46 -0.1196,0.1709 a 0.85661,0.85661 0 0 0 -0.1675,0.3994 0.58973,0.58973 0 0 0 0.2901,0.5185 0.56665,0.56665 0 0 0 0.8457,-0.1523 c 0.1508,-0.2207 0.1528,-0.2363 0.0039,-0.3379 z m -0.5957,-0.418 c -0.38819,-0.2725 -0.4365,-0.2588 -0.6914,0.0576 l -0.147,-0.1055 0.8858,-1.2685 0.14841,0.1045 c -0.21341,0.3506 -0.20851,0.4004 0.17969,0.6738 l 1.2031,0.8428 c 0.3941,0.2763 0.4385,0.2578 0.6836,-0.0479 l 0.148,0.1055 -0.9302,1.334 a 1.43755,1.43755 0 0 1 -0.5425,0.5176 0.696,0.696 0 0 1 -0.6875,-0.086 0.79078,0.79078 0 0 1 -0.2451,-0.9414 c -0.1567,-0.0117 -0.5312,-0.0215 -0.769,-0.0215 a 2.73534,2.73534 0 0 0 -0.563,0.041 1.1813,1.1813 0 0 0 -0.3408,0.1602 l -0.1275,-0.1152 0.1499,-0.211 c 0.3369,-0.4717 0.5708,-0.5215 0.86331,-0.5322 0.25779,-0.0078 0.61769,0.0361 0.82959,0.0508 0.1562,0.0146 0.2075,-0.0147 0.3183,-0.1748 l 0.06111,-0.0869 z m -1.5991,5.0478 -0.1738,0.1836 c -0.1709,0.1778 -0.2974,0.2735 -0.4175,0.2754 a 0.84188,0.84188 0 0 1 -0.4507,-0.1875 l -0.1206,0.1465 c 0.2007,0.1563 0.52051,0.416 0.6856,0.5723 l 0.0712,-0.0762 a 0.2414,0.2414 0 0 1 0.0948,-0.2568 l 1.3965,-1.4639 c 0.1079,-0.1152 0.1523,-0.1436 0.2729,-0.127 L 45.3667,53.189 C 45.206,53.0269 44.9985,52.7837 44.75341,52.523 l -0.12551,0.1298 a 1.04205,1.04205 0 0 1 0.19,0.4229 c 0.0039,0.1055 -0.04249,0.2422 -0.3052,0.5195 l -0.105,0.1094 -1.4146,-1.3545 C 42.6518,52.021 42.6557,51.9702 42.936,51.6362 l -0.1304,-0.123 -1.1396,1.1934 0.13041,0.1269 c 0.33249,-0.3105 0.38419,-0.3174 0.726,0.0117 z m -3.1655,0.875 -0.5728,0.4473 0.84721,0.5107 0.01609,-0.0117 z m -1.1983,-0.3281 -0.0898,0.086 c -0.1333,0.1269 -0.1304,0.1826 0.1304,0.3378 l 0.3593,0.211 0.7046,-0.5469 c -0.0219,-0.0703 -0.0957,-0.2803 -0.1631,-0.4658 -0.0732,-0.1885 -0.1362,-0.207 -0.2905,-0.1104 l -0.1284,0.0821 -0.1094,-0.1455 0.9282,-0.7198 0.1109,0.1426 c -0.1948,0.1934 -0.2788,0.2754 -0.1602,0.7285 l 0.6245,2.3887 -0.1582,0.1894 -2.2441,-1.2949 a 0.507,0.507 0 0 0 -0.6807,0.0254 l -0.1093,-0.1474 1.16451,-0.9053 z m -2.1147,4.291 -0.2251,0.1172 c -0.2163,0.1162 -0.3657,0.168 -0.4819,0.1319 -0.0972,-0.0274 -0.1968,-0.1045 -0.3687,-0.3165 l -0.1592,0.1006 c 0.1426,0.2119 0.3638,0.5567 0.4722,0.7588 l 0.0913,-0.0498 c 0.0225,-0.1094 0.0332,-0.1426 0.1719,-0.2178 l 1.7798,-0.9541 c 0.1362,-0.0742 0.1894,-0.0878 0.3003,-0.0351 L 39.12941,58.522 C 39.0263,58.3198 38.9062,58.021 38.7539,57.6968 l -0.1602,0.0879 a 0.96112,0.96112 0 0 1 0.0479,0.4609 c -0.0259,0.1016 -0.1128,0.2149 -0.4507,0.3945 l -0.1323,0.0743 -0.9214,-1.7305 c -0.2256,-0.416 -0.2066,-0.4648 0.167,-0.6943 l -0.0869,-0.1612 -1.4541,0.7813 0.0849,0.1601 c 0.4126,-0.1924 0.4619,-0.1816 0.6866,0.2364 z m -3.7139,1.0196 c 0.15331,0.457 0.1226,0.4931 -0.25,0.6474 l 0.0586,0.1719 1.4834,-0.5029 -0.0581,-0.17 c -0.3901,0.1036 -0.4355,0.0918 -0.5869,-0.3662 l -0.4712,-1.3935 c -0.1509,-0.4492 -0.12449,-0.4932 0.249,-0.6446 l -0.05949,-0.1748 -1.48151,0.502 0.0571,0.1709 c 0.3892,-0.1055 0.4371,-0.085 0.5899,0.3662 z M 31.4507,59.4116 A 7.97139,7.97139 0 0 0 31.164,58.6607 1.53923,1.53923 0 0 0 30.293,58.5659 c -0.6983,0.1123 -1.1338,0.5459 -1.044,1.1114 0.0918,0.5136 0.5283,0.6933 1.0103,0.7812 l 0.1679,0.0293 c 0.2666,0.0488 0.4741,0.1602 0.5147,0.3984 a 0.4337,0.4337 0 0 1 -0.37549,0.4971 0.76577,0.76577 0 0 1 -0.77151,-0.5342 l -0.1943,0.0586 c 0.0976,0.3125 0.1591,0.5322 0.2143,0.7022 a 2.85141,2.85141 0 0 0 0.6992,0.0185 c 0.7388,-0.1201 1.0728,-0.5693 0.9878,-1.0976 -0.0713,-0.4336 -0.5058,-0.5889 -0.8999,-0.6758 l -0.1845,-0.0381 c -0.3477,-0.0752 -0.5332,-0.248 -0.5728,-0.5049 a 0.4547,0.4547 0 0 1 0.4224,-0.5078 1.08764,1.08764 0 0 1 0.9878,0.6543 z m -5.05329,1.0801 a 0.711,0.711 0 1 0 0.70709,-0.7305 0.721,0.721 0 0 0 -0.70709,0.7305 M 19.0493,26.5874 v 0 m 27.4326,-3.0752 a 0.76692,0.76692 0 0 1 0.6631,-0.2139 0.30989,0.30989 0 0 0 -0.03859,-0.0468 0.62714,0.62714 0 0 0 -0.88521,0.8886 0.50326,0.50326 0 0 0 0.0464,0.0372 0.76887,0.76887 0 0 1 0.2143,-0.6651 m -3.1431,-9.5327 a 29.21534,29.21534 0 0 1 5.6109,17.52 30.5603,30.5603 0 0 1 -1.8809,10.6426 c -0.0405,0.1045 -0.083,0.2139 -0.1225,0.3184 l -2.35889,0.0039 a 0.97122,0.97122 0 0 1 0.40619,0.7246 c 0,0.5156 -0.3476,0.5176 -0.9809,0.5234 l -0.249,0.002 H 37.043 c -0.4307,0.0039 -0.7701,0.0039 -0.9522,-0.1739 a 0.47057,0.47057 0 0 1 -0.125,-0.3515 0.97557,0.97557 0 0 1 0.41161,-0.7383 H 31.979 a 6.16886,6.16886 0 0 0 0.789,-1.7129 c 0.9068,-3.1035 0.8262,-6.5195 0.8643,-9.2715 0.023,-1.625 0.0249,-1.4863 -0.0493,-3.0371 0,0 0.31441,-0.1143 0.1118,-0.7383 a 1.45841,1.45841 0 0 0 -0.5947,-0.7812 0.42793,0.42793 0 0 0 -0.1323,-0.3926 l -0.2056,-0.1836 a 0.86925,0.86925 0 0 0 -0.0176,-0.0918 2.58213,2.58213 0 0 1 -0.13819,-0.7305 11.5719,11.5719 0 0 0 -0.63421,-2.7705 0.64109,0.64109 0 0 0 0.3593,0.0196 c 0.4326,-0.0704 0.3535,-0.5909 0.1284,-0.877 -0.1142,-0.1435 -0.4116,-0.5923 -0.5629,-0.8184 a 9.10507,9.10507 0 0 1 -0.4483,-1.123 14.83662,14.83662 0 0 1 -0.0117,-2.0591 c 0.1758,-3.1821 -1.2822,-3.3833 -1.7803,-3.6206 a 1.59513,1.59513 0 0 1 -0.48,-0.3047 c -0.0288,0.5894 -0.8789,0.9737 -1.7719,0.9737 -0.9107,0 -1.773,-0.354 -1.773,-0.9605 0,-0.0361 -0.0307,-0.0806 0.0762,-0.1875 l -0.4365,0.0625 c -0.5493,0.1377 -0.6768,0.0859 -0.8882,0.1607 a 1.49933,1.49933 0 0 0 -0.9087,1.0615 c -0.2817,0.6513 -0.5444,1.3965 -0.5444,1.3965 -0.0679,0.1577 -0.1539,0.4541 -0.1539,0.4541 0,0 -0.18789,-0.2256 -0.2788,-0.334 -0.1787,-0.2197 -1.26609,-1.2095 -1.4516,-1.3955 -0.0781,-0.0816 -0.7847,0.1338 -0.7847,0.1338 a 13.809,13.809 0 0 1 2.6514,2.7944 c 0.083,0.1714 0.02981,0.1099 -0.0938,0.0532 a 7.58923,7.58923 0 0 0 -3.5205,-0.4678 l -0.4511,0.6304 c 2.082,-0.2026 3.6909,0.021 4.0971,0.5986 a 0.47435,0.47435 0 0 0 0.4839,0.1822 0.36641,0.36641 0 0 0 0.2861,-0.3677 0.588,0.588 0 0 1 0.0664,-0.2861 7.2871,7.2871 0 0 1 3.6656,-3.0576 l 1.06,3.3061 a 4.29678,4.29678 0 0 1 0.773,0.1426 c -0.0786,-0.1924 -0.5152,-0.5762 -0.3828,-0.8008 0.0371,-0.0586 0.4965,0.0088 0.7168,-0.1328 0.2529,-0.1655 0.6479,-0.5176 0.2807,-1.4756 -0.0654,-0.1724 -0.1523,-0.3804 -0.1787,-0.4619 l 0.1807,-0.061 c 0.0195,0.0639 0.0888,0.2417 0.1738,0.4516 0.5117,1.2593 -0.0762,1.6113 -0.3242,1.8413 a 0.8092,0.8092 0 0 0 -0.1123,0.1211 0.61682,0.61682 0 0 0 0.0679,0.6362 c 0.21821,0.0796 0.21821,0.1646 0.21821,0.1646 l -0.0058,0.7026 A 11.9648,11.9648 0 0 0 27.1401,19.4307 c 0.1045,-0.0181 0.44831,-0.1807 0.333,-0.2969 -0.0464,-0.0454 -0.34269,0.0342 -0.5,0.0459 -0.1294,0.0117 -0.1225,-0.0796 -0.0483,-0.1289 a 1.55012,1.55012 0 0 0 0.2549,-0.1358 1.42017,1.42017 0 0 0 0.57271,-0.6147 C 27.8027,18.1528 27.6181,18.1323 27.6181,18.1323 27.6396,17.9956 27.5137,17.9307 27.35741,18 a 5.4945,5.4945 0 0 1 -0.80611,0.333 c -0.1006,0.0171 -0.17189,-0.082 -0.1065,-0.1474 a 3.21891,3.21891 0 0 0 0.5034,-0.6587 c 0.2276,-0.3306 -0.1045,-0.315 -0.2231,-0.1963 a 5.98306,5.98306 0 0 1 -1.2041,0.9385 c -0.1655,0.0727 -0.2222,0.0454 -0.1963,-0.0855 a 1.15511,1.15511 0 0 0 0,-0.4873 C 25.3139,17.5405 24.9985,17.397 24.9985,17.5938 a 0.87966,0.87966 0 0 1 -0.1836,0.6142 c -0.2251,0.2949 -0.1264,0.6787 -0.229,0.7573 a 2.3123,2.3123 0 0 1 -2.0469,0.5025 1.057,1.057 0 0 0 -1.3627,-0.2359 c -1.1065,1.0088 -0.6285,3.2774 -0.5611,3.4493 0.4868,1.2734 1.26221,0.6113 1.3985,0.4707 a 4.93464,4.93464 0 0 0 1.1782,-2.1099 3.54224,3.54224 0 0 0 1.145,-0.5503 4.19308,4.19308 0 0 1 0.9736,-0.5918 c 0.2334,0 0.585,-0.1763 0.7154,-0.1348 v 0.1514 a 9.27709,9.27709 0 0 0 -1.48149,1.0498 c -0.11471,0.6504 -1.72071,2.8467 -1.10451,3.2891 0.2744,0.1943 0.107,0.5625 0.0059,1.0293 a 38.70919,38.70919 0 0 0 -0.6362,4.0312 c 0,0 -0.1827,0.7022 0.1474,0.917 a 4.4774,4.4774 0 0 0 1.7471,0.1846 c 0.1841,-0.0195 0.5434,0.1875 0.7016,0.1758 0,0 -0.0517,1.1406 -0.2275,1.1191 -0.2041,-0.0244 -0.17479,-0.8144 -0.2041,-0.7363 -0.03369,0.084 -0.1572,-0.1055 -0.2236,-0.0938 a 4.4205,4.4205 0 0 1 -1.3067,-0.0478 0.31536,0.31536 0 0 0 -0.3217,0.2099 11.2662,11.2662 0 0 0 -0.0928,1.4122 c -0.021,0.3544 -0.0772,0.5996 -0.1167,1.0214 -0.022,0.1973 -0.022,1.583 -0.0591,2.1748 -0.07909,1.1993 -0.2153,4.3506 -0.249,5.418 -2.0816,0.0518 -4.0952,-0.2275 -3.315,-1.0332 0.1343,-0.1387 0.2744,-0.2412 0.4307,-0.3838 0.5937,-0.5449 0.624,-0.0469 1.2603,-1.0254 a 10.19355,10.19355 0 0 0 1.0468,-2.9912 c 0.1968,-0.6943 -0.06489,-0.9775 -0.5757,-0.042 a 6.75544,6.75544 0 0 1 -0.4838,0.918 1.97283,1.97283 0 0 1 -0.7066,0.6309 c -0.6025,0.248 -1.0469,-0.8711 -0.209,-1.8487 0.313,-0.3681 0.6783,-0.29 0.7188,-0.0937 a 0.1621,0.1621 0 0 0 0.3003,0.0136 4.98042,4.98042 0 0 0 0.2885,-0.5244 8.51764,8.51764 0 0 0 1.1924,-3.6406 c 0.002,-0.1797 -0.0092,-0.332 -0.0112,-0.4629 -0.0029,-0.8105 -0.4985,-1.0918 -0.6904,-0.5508 -0.1587,0.4492 -0.5147,0.335 -0.4117,-0.249 a 29.0629,29.0629 0 0 1 1.5113,-4.7275 c 0.0908,-0.2715 -0.1177,-0.335 -0.187,-0.3926 -0.0996,-0.0879 -0.1665,-0.1192 -0.1182,-0.3545 a 14.95783,14.95783 0 0 1 1.2188,-2.9307 c 0.1508,-0.2163 -0.0503,-0.3286 -0.21639,-0.0649 -2.19671,3.4321 -3.10641,9.1997 -3.09471,9.5669 0.0425,1.5039 0.9238,0.7168 0.9238,0.7168 a 5.251,5.251 0 0 1 -1.05709,1.9961 c -1.935,2.8398 -1.14061,4.1504 -1.14061,4.1504 0.3013,0.5781 0.8345,1.0703 -0.3467,1.9902 -0.3804,0.2959 -1.6035,1.1836 -0.2353,2.1211 0.4238,0.291 0.7251,0.4736 0.9384,0.5918 h -2.019 a 0.98071,0.98071 0 0 1 0.4131,0.7383 c 0,0.5156 -0.3477,0.5176 -0.981,0.5234 l -6.9717,-0.0078 c -0.4296,0 -0.7714,0.0137 -0.95019,-0.1641 A 0.46822,0.46822 0 0 1 8.999,43.189 0.98583,0.98583 0 0 1 9.4053,42.4546 l -2.108,0.0059 C 7.2568,42.356 7.21341,42.2466 7.1738,42.1421 A 30.56026,30.56026 0 0 1 5.293,31.4995 a 29.21958,29.21958 0 0 1 5.6113,-17.52 c 0.0132,-0.0161 0.0239,-0.0342 0.0376,-0.0518 v 9.2183 a 0.62141,0.62141 0 0 0 -0.7237,0.1143 c -0.0151,0.0156 -0.02579,0.0322 -0.0395,0.0468 a 0.75653,0.75653 0 0 1 0.6636,0.2139 0.7692,0.7692 0 0 1 0.2153,0.6426 0.86108,0.86108 0 0 1 -0.1157,0.0859 v 0.2529 a 1.34945,1.34945 0 0 0 1.2514,0.7002 1.20141,1.20141 0 0 0 1.1914,-1.1728 0.35834,0.35834 0 0 0 -0.2006,-0.1533 0.62707,0.62707 0 1 1 0.0229,-0.209 c 0.0811,0.0098 0.2666,-0.0039 0.2905,-0.3604 a 0.626,0.626 0 1 1 0.2012,0 c 0.023,0.3565 0.2105,0.3702 0.2905,0.3604 a 0.62288,0.62288 0 1 1 0.022,0.209 0.349,0.349 0 0 0 -0.1977,0.1533 1.20019,1.20019 0 0 0 1.1914,1.1728 1.34515,1.34515 0 0 0 1.3423,-0.9101 0.62626,0.62626 0 0 1 -0.4083,-0.5869 0.59872,0.59872 0 0 1 0.14651,-0.3955 0.75512,0.75512 0 0 1 0.648,0.2129 0.77453,0.77453 0 0 1 0.21239,0.665 c 0.01561,-0.0147 0.0322,-0.0244 0.0483,-0.0381 a 0.63152,0.63152 0 0 0 0,-0.8887 0.61941,0.61941 0 0 0 -0.59569,-0.1621 V 12.9795 c 0,0 -0.86421,-7.4551 10.48489,-7.603 10.8159,-0.0733 10.6826,7.6289 10.6826,7.6289 V 23.063 a 0.61429,0.61429 0 0 0 -0.5156,0.1787 0.62475,0.62475 0 0 0 0,0.8867 0.53416,0.53416 0 0 0 0.0483,0.0371 0.75477,0.75477 0 0 1 0.2124,-0.665 0.76739,0.76739 0 0 1 0.6587,-0.2139 0.61341,0.61341 0 0 1 0.1553,0.4073 0.63008,0.63008 0 0 1 -0.4082,0.5908 1.35005,1.35005 0 0 0 1.3452,0.9101 1.2016,1.2016 0 0 0 1.18941,-1.1738 0.36612,0.36612 0 0 0 -0.19871,-0.1553 0.6313,0.6313 0 1 1 0.021,-0.208 c 0.083,0.0117 0.2686,-0.0019 0.291,-0.3594 a 0.62575,0.62575 0 1 1 0.20271,0 c 0.02289,0.3575 0.20849,0.3711 0.28849,0.3594 a 0.62656,0.62656 0 1 1 0.02251,0.208 0.352,0.352 0 0 0 -0.19631,0.1553 1.20023,1.20023 0 0 0 1.187,1.1738 1.355,1.355 0 0 0 1.3467,-0.9101 0.65933,0.65933 0 0 1 -0.1919,-0.1192 0.76531,0.76531 0 0 1 0.8784,-0.8789 C 43.8891,23.272 43.87841,23.2554 43.8638,23.2417 a 0.61789,0.61789 0 0 0 -0.563,-0.1738 v -9.1402 c 0.0127,0.0176 0.0244,0.0357 0.038,0.0518 M 16.498,24.4439 a 1.08018,1.08018 0 0 0 1.1319,1.0341 1.10445,1.10445 0 0 0 0.6313,-0.2373 1.07639,1.07639 0 0 1 -0.4473,0.1182 1.01687,1.01687 0 0 1 -1.10049,-0.8525 1.4226,1.4226 0 0 1 -0.03181,-0.1827 z M 8.3227,23.7485 a 0.53042,0.53042 0 0 0 -0.0395,0.0479 0.763,0.763 0 0 1 0.8779,0.8779 0.43037,0.43037 0 0 0 0.0474,-0.04 0.62636,0.62636 0 0 0 -0.8858,-0.8858 m -0.4882,0.4014 a 0.62738133,0.62738133 0 1 0 -0.8858,-0.8887 0.42938,0.42938 0 0 0 -0.0376,0.0489 0.76169,0.76169 0 0 1 0.876,0.8779 c 0.0161,-0.0147 0.0327,-0.0244 0.0474,-0.0381 m 0.3657,0.668 A 1.23991,1.23991 0 0 0 9.1997,25.478 0.99733,0.99733 0 0 0 9.9248,25.2651 1.05632,1.05632 0 0 1 9.3843,25.3589 1.23771,1.23771 0 0 1 8.3828,24.7007 Z M 17.8286,43.189 A 0.95805,0.95805 0 0 0 17.27341,42.4507 2.875,2.875 0 0 0 16.7778,42.2124 h 0.01861 A 0.10435,0.10435 0 0 1 16.7627,42.2066 l 0.0151,0.0058 h -6.5273 l 0.0151,-0.0058 a 0.10975,0.10975 0 0 1 -0.0347,0.0058 h 0.0196 A 2.983,2.983 0 0 0 9.749,42.4526 0.96022,0.96022 0 0 0 9.1987,43.189 0.38421,0.38421 0 0 0 9.2143,43.3062 h 8.6055 a 0.679,0.679 0 0 0 0.0088,-0.1172 m 1.5102,-19.9151 a 0.44837,0.44837 0 0 0 -0.0395,0.0469 0.76255,0.76255 0 0 1 0.8779,0.8779 0.53731,0.53731 0 0 0 0.0489,-0.039 0.62689,0.62689 0 1 0 -0.8873,-0.8858 m 0.1304,1.2354 c -0.2666,0.1191 -0.6411,0.4873 -0.6074,1.6152 0.0088,0.2754 0.0107,0.3828 0.0088,0.4629 H 8.272 v 7.3965 a 5.40144,5.40144 0 0 0 2.6699,4.666 5.36689,5.36689 0 0 0 4.6831,0.3682 5.36671,5.36671 0 0 1 -2.6709,0.7099 5.42287,5.42287 0 0 1 -2.0122,-0.3886 v 2.6738 h 5.45651 v -3.3691 a 5.4096,5.4096 0 0 0 2.66019,-4.6602 v -7.3965 h -0.0093 a 4.56478,4.56478 0 0 0 -0.0029,-0.582 1.81172,1.81172 0 0 1 0.42279,-1.4961 M 18.8774,23.7612 a 0.62716,0.62716 0 0 0 -0.88571,0 0.51879,0.51879 0 0 0 -0.0386,0.0479 0.75952,0.75952 0 0 1 0.6626,0.2119 0.76979,0.76979 0 0 1 0.2144,0.666 c 0.0151,-0.0127 0.0317,-0.0224 0.04731,-0.0381 a 0.6294,0.6294 0 0 0 0,-0.8877 M 30.8345,8.0327 c 0.0136,-0.4702 -0.0269,-1.0996 -0.9424,-1.0996 0.2568,0 -0.6538,-0.0664 -0.6538,0.3794 a 0.69819,0.69819 0 0 1 -0.732,0.7354 c 0.0108,0 -1.06389,-0.3199 -0.5117,-0.5308 A 0.82046,0.82046 0 0 0 28.436,6.4058 0.79124,0.79124 0 0 0 27.1797,6.2871 c -0.1187,0.1187 -0.0396,0.4707 -0.2647,0.4707 -0.28559,0 -0.2749,-0.2744 -0.2749,-0.4419 0,-0.1943 -0.0888,-0.4824 -0.5796,-0.4824 a 0.54536,0.54536 0 0 0 -0.6172,0.5029 0.41969,0.41969 0 0 0 0.2466,0.4595 c 0.1719,0.0986 0.085,0.459 -0.2212,0.2529 C 25.3701,6.9868 24.3188,6.0142 23.3096,6.6631 22.852,6.96 22.873,7.3599 23.17141,7.5557 c 0.12249,0.0791 0.16109,0.2158 0.0049,0.3149 a 0.94482,0.94482 0 0 0 0.1469,1.3081 0.88006,0.88006 0 0 0 1.374,-0.2373 2.25507,2.25507 0 0 0 0.1177,-1.0039 c -0.0097,-0.1265 0.0899,-0.5298 0.6568,-0.4204 0.2539,0.0493 0.2876,0.2187 0.1474,0.3638 a 2.20473,2.20473 0 0 0 -0.8564,1.7788 0.94908,0.94908 0 0 1 -0.4971,0.8257 c -0.2368,0.1596 -0.8711,0.5542 -0.30219,1.1938 0.31539,0.356 0.37939,0.4605 -0.33991,1.1397 -0.1152,0.1093 -0.397,0.2617 0.11091,0.3134 a 13.50871,13.50871 0 0 0 2.07419,-0.1211 l -0.1431,-0.2714 a 8.459,8.459 0 0 1 -1.604,0.0502 1.1119,1.1119 0 0 0 0.4512,-1.5683 c -0.2744,-0.3545 -0.0337,-0.6416 0.4956,-0.7066 a 1.8131,1.8131 0 0 1 1.2397,0.1783 c 0,0 -0.7832,-0.0913 -1.0854,0.1601 l 0.0127,0.0694 c 0.0049,0.0337 0.0268,0.1186 0.0508,0.207 a 5.52253,5.52253 0 0 1 0.8828,-0.1812 0.09938,0.09938 0 0 1 0.03851,0.1348 0.10061,0.10061 0 0 1 -0.13331,0.0396 0.49976,0.49976 0 0 1 -0.2251,0.0258 c 0.0059,0.0147 0.1343,0.0786 0.1382,0.0967 a 0.18071,0.18071 0 0 1 -0.1303,0.2178 0.17873,0.17873 0 0 1 -0.2183,-0.1289 0.17455,0.17455 0 0 1 0.0322,-0.1529 1.69164,1.69164 0 0 0 -0.3515,0.0708 c 0.0058,0.0259 0.0122,0.0484 0.018,0.0684 a 1.076,1.076 0 0 0 0.0445,0.1069 1.14309,1.14309 0 0 1 0.1215,0.4356 0.769,0.769 0 0 0 0.0572,0.2383 c 0.0224,0.0449 0.0473,0.0981 0.0732,0.1572 0.1914,0.4419 0.478,1.103 1.3193,0.897 A 0.08778,0.08778 0 0 1 27,13.2192 0.09713,0.09713 0 0 1 26.9365,13.3237 c -0.0435,0.0196 -0.1177,0.0479 -0.16209,0.066 a 0.68606,0.68606 0 0 1 -0.46781,0.0434 c 0.0371,0.1255 0.063,0.2373 0.063,0.2373 0,0 -0.314,0.0454 -0.4365,0.0752 -0.02,0.0601 -0.0269,0.0225 -0.0269,0.0864 0,0.5245 0.6729,0.9493 1.4986,0.9493 0.8257,0 1.4975,-0.4248 1.4975,-0.9493 a 0.53073,0.53073 0 0 0 -0.0161,-0.1259 l -0.0058,-0.0079 c -0.0513,-0.0708 -0.0967,-0.1435 -0.1382,-0.2109 -0.3794,-0.6445 -0.312,-0.8144 -0.312,-0.8144 0.0395,-0.0923 -0.0162,-0.0913 0.0483,-0.0953 a 13.50218,13.50218 0 0 0 1.9595,-0.2392 c 0.1416,-0.0288 0.31341,-0.1636 0.1513,-0.2598 -0.1303,-0.0781 -1.2387,-0.1953 -1.2338,-0.8569 0.0029,-0.4995 0.1494,-1.148 -0.81109,-1.4448 C 28.4678,9.7549 28.4516,9.7124 28.4658,9.6084 A 1.54905,1.54905 0 0 0 28.1675,8.6665 C 28.0063,8.4824 27.7783,8.2676 27.8047,8.1904 l 0.1362,-0.0449 a 1.43032,1.43032 0 0 1 0.60351,0.5586 C 28.687,8.9653 28.9228,9.1885 29.7222,9.1885 a 1.14719,1.14719 0 0 0 1.1123,-1.1558 m 14.0258,15.708 a 0.63141,0.63141 0 0 0 0,0.8877 c 0.0157,0.0137 0.0313,0.0225 0.0474,0.0381 a 0.768,0.768 0 0 1 0.2134,-0.666 0.76,0.76 0 0 1 0.6645,-0.2148 0.495,0.495 0 0 0 -0.0385,-0.045 0.62487,0.62487 0 0 0 -0.8868,0 m -0.1797,1.6104 a 1.09757,1.09757 0 0 1 -0.5415,-0.0938 1.00547,1.00547 0 0 0 0.7261,0.2119 1.25,1.25 0 0 0 1.0005,-0.6591 L 45.6811,24.689 a 1.24012,1.24012 0 0 1 -1.0005,0.6621 m -3.977,6.0361 h 0.6235 v -0.4639 c 0,-0.2587 -0.19669,-0.2724 -0.4355,-0.288 v -0.1114 h 1.2246 v 0.1114 c -0.2192,0.0156 -0.4561,0.0293 -0.4561,0.288 v 0.4639 h 0.28231 v 0.6455 a 0.62328,0.62328 0 0 0 0.22309,0.0391 c 0.3555,0 0.5327,-0.2168 0.5376,-0.625 a 2.54263,2.54263 0 0 0 -0.0268,-0.374 h 0.1967 a 2.94175,2.94175 0 0 0 -0.0268,0.4785 v -0.0938 a 0.71266,0.71266 0 0 1 -0.2173,0.5752 0.8693,0.8693 0 0 1 -0.5503,0.1797 0.94084,0.94084 0 0 1 -0.13619,-0.0146 v 0.6884 h 1.23289 v -3 h -2.4717 z m 2.6709,-3.3389 c 0.0019,-0.0087 -0.0068,-0.0146 -0.0088,-0.0224 0.0049,-0.002 0.01071,0 0.01471,-0.0039 A 0.02991,0.02991 0 0 0 43.3677,27.981 l -0.2481,-0.1182 a 0.03017,0.03017 0 0 0 -0.0254,0.0547 l 0.1065,0.0508 a 0.06237,0.06237 0 0 0 -0.0337,0.0361 c -0.0088,0.0381 0.0317,0.0772 0.0869,0.0928 0.0596,0.0097 0.1118,-0.0117 0.1206,-0.0489 m -0.063,0.294 a 0.24036,0.24036 0 0 0 -0.2749,0.1553 c 0.3862,-0.1592 0.42481,0.1386 0.42481,0.1386 0.01119,-0.0605 0.11179,-0.2363 -0.14991,-0.2939 m 0.1255,-0.2979 c 0.0019,0.0039 0.0088,0.0039 0.0127,0.0118 -0.0059,0.0058 -0.0137,0.0078 -0.0156,0.0156 -0.0083,0.0371 0.0312,0.0781 0.0888,0.0908 0.0591,0.0127 0.1104,-0.0107 0.1182,-0.0488 a 0.065,0.065 0 0 0 -0.0176,-0.0479 l 0.1187,-0.0019 a 0.03221,0.03221 0 0 0 0.0273,-0.0332 c -10e-4,-0.0176 -0.0117,-0.0313 -0.0293,-0.0293 l -0.2749,0.0097 a 0.03372,0.03372 0 0 0 -0.0283,0.0332 m 0.1787,1.9395 a 2.22015,2.22015 0 0 1 -0.2412,-0.041 v 0.2051 a 0.54926,0.54926 0 0 1 0.18991,-0.0538 c 0.13629,-0.0117 0.05129,-0.1103 0.05129,-0.1103 m -0.7549,4.7402 a 2.57594,2.57594 0 0 0 0.3145,-1.2383 v -0.3984 h -1.23289 v 0.1338 a 1.33974,1.33974 0 0 1 -0.03761,0.3135 z m -1.9043,-0.1914 a 1.20114,1.20114 0 0 1 -0.2529,0.0449 v 1.5059 a 2.57334,2.57334 0 0 0 1.207,-0.3672 z m -0.7998,-2.2011 v -0.7442 h -0.7441 v 0.7442 h 0.7441 v 0.8427 h -0.7441 v 0.0469 a 1.16811,1.16811 0 0 0 0.7441,1.0869 v -1.1338 h 0.8423 v 1.1338 a 1.16262,1.16262 0 0 0 0.7358,-0.9785 0.66189,0.66189 0 0 0 0.0069,-0.1084 V 33.1743 H 40.999 v -0.8427 z m 0.8423,0 h 0.7427 V 31.5874 H 40.999 Z M 37.9062,27.648 c 0,0.0039 -0.0039,0.0039 -0.0039,0.0117 a 0.07418,0.07418 0 1 0 0.1465,0 c 0,-0.0078 -0.0058,-0.0117 -0.0078,-0.0215 l 0.10641,-0.0059 c 0.022,0 0.03569,0 0.03859,-0.0224 10e-4,-0.0196 -0.0127,-0.0254 -0.0347,-0.0254 l -0.1738,-0.0078 -0.0019,-0.002 -0.002,0.002 -0.083,-0.0039 a 0.0377,0.0377 0 0 0 -0.0039,0.0752 z m 0.0743,3.1972 v 2.041 h 1.2338 v -0.5127 z m 2.18791,0.542 h 0.336 v -1.501 H 38.9595 Z m -2.18791,1.7002 v 0.3984 a 2.59964,2.59964 0 0 0 2.52391,2.5977 v -1.5 a 1.40127,1.40127 0 0 1 -0.27591,-0.043 c -10e-4,0.0352 -0.002,0.0713 -0.002,0.1114 V 34.5581 A 0.70832,0.70832 0 0 1 40.0102,35.1304 0.85374,0.85374 0 0 1 39.459,35.311 0.958,0.958 0 0 1 38.9297,35.1831 0.59335,0.59335 0 0 1 38.7055,34.6255 V 34.023 c 0,-0.2569 -0.1967,-0.2715 -0.4355,-0.2862 v -0.1123 h 1.00441 A 1.39084,1.39084 0 0 1 39.2143,33.2212 v -0.1338 z m 1.3403,0.666 c -0.1538,0.0235 -0.2813,0.0801 -0.2813,0.2696 v 0.5546 c 0,0.3809 0.1538,0.5928 0.5044,0.5928 0.357,0 0.5337,-0.2138 0.5376,-0.6221 V 34.4927 A 1.36871,1.36871 0 0 1 39.3208,33.7534 M 37.3515,24.4956 A 1.01956,1.01956 0 0 1 36.251,25.3511 1.1,1.1 0 0 1 35.8027,25.23 1.08446,1.08446 0 0 0 37.5669,24.4331 L 37.3828,24.313 a 1.12908,1.12908 0 0 1 -0.0313,0.1826 m -2.1733,-0.7432 a 0.62984,0.62984 0 0 0 0,0.8858 c 0.0161,0.0146 0.0317,0.0264 0.0474,0.04 a 0.76907,0.76907 0 0 1 0.2133,-0.667 0.76091,0.76091 0 0 1 0.6641,-0.2119 0.28,0.28 0 0 0 -0.03859,-0.0469 0.62434,0.62434 0 0 0 -0.88621,0 m -1.0981,-0.2402 a 0.7663,0.7663 0 0 1 0.6626,-0.2139 0.3085,0.3085 0 0 0 -0.0376,-0.0468 0.62735,0.62735 0 1 0 -0.8858,0.8886 0.5338,0.5338 0 0 0 0.0474,0.0372 0.76506,0.76506 0 0 1 0.2134,-0.6651 m 0.6674,1.001 a 1.812,1.812 0 0 1 0.42091,1.4941 c -0.01071,0.3848 -0.0078,0.5176 -0.0039,0.5616 l 0.002,0.0185 v 6.2988 h 2.6157 v -1.457 a 4.07392,4.07392 0 0 1 -0.7036,0.1397 c -0.2153,0.0615 -0.0757,0.4257 -0.0757,0.4257 -0.2046,-0.0341 -0.185,-0.2607 -0.185,-0.2607 -0.2388,-0.0059 -0.2002,0.3125 -0.2002,0.3125 -0.1988,-0.0859 -0.0181,-0.3047 -0.0762,-0.3242 -0.1138,-0.0498 -0.2769,0.165 -0.2769,0.165 a 0.50838,0.50838 0 0 1 0.1602,-0.4092 c -0.0801,-0.0566 -0.21139,0.0215 -0.21139,0.0215 0.12059,-0.3515 0.39689,-0.1582 0.46629,-0.1054 0.0581,0.0429 0.09571,0.0839 0.1758,0.0156 a 3.25124,3.25124 0 0 1 0.5571,-0.3428 c -0.2036,0.0322 -0.3218,-0.2344 -0.3218,-0.2344 0.24661,0 0.2734,-0.0732 0.3247,-0.1474 a 1.55007,1.55007 0 0 1 0.3667,-0.4102 v -0.4004 a 3.184,3.184 0 0 1 -0.3911,-0.1914 3.43387,3.43387 0 0 1 -0.7705,0.6738 0.12564,0.12564 0 0 0 -0.103,0.1368 c 0,0.2129 -0.1026,0.2734 -0.1026,0.2734 A 0.1745,0.1745 0 0 0 36.2539,30.564 C 36.084,30.5542 36.0493,30.8091 36.0493,30.8091 35.87841,30.7339 36.019,30.4468 36.019,30.4468 a 0.64731,0.64731 0 0 0 -0.3091,0.1416 c -0.0791,-0.1973 0.233,-0.3076 0.233,-0.3076 a 0.88572,0.88572 0 0 0 -0.3023,-0.0332 0.31751,0.31751 0 0 1 0.5195,-0.0703 c 0.0279,0.0527 0.0674,0.1367 0.13531,0.0371 0.083,-0.126 0.581,-0.6075 0.67189,-0.6983 C 36.897,29.4878 36.644,29.5425 36.5,29.3989 a 0.86047,0.86047 0 0 0 0.5146,-0.1631 0.169,0.169 0 0 0 -0.08,-0.1035 5.90045,5.90045 0 0 1 -0.9185,-0.8037 c -0.3408,0.0322 -0.3853,-0.1728 -0.3853,-0.1728 0.0957,0.0273 0.3003,0.0107 0.3003,-0.0576 0,-0.0762 -0.2905,-0.2071 -0.2905,-0.2071 0.0693,-0.0595 0.3281,0.0147 0.3281,0.0147 0.0078,-0.041 -0.1738,-0.2676 -0.1738,-0.2676 0.144,0 0.3101,0.1816 0.3101,0.1816 0.04341,-0.0947 -0.0474,-0.3027 -0.0474,-0.3027 0.3071,0.1533 0.23781,0.5625 0.23781,0.5625 l 0.93259,0.6641 a 0.47325,0.47325 0 0 0 0.6231,-0.086 0.18054,0.18054 0 0 0 -0.0689,-0.3125 c -0.0259,-0.0029 -0.1543,0.0215 -0.1831,-0.0263 -0.0444,-0.0694 -0.0225,-0.167 0.0259,-0.1866 a 1.57993,1.57993 0 0 1 0.3188,0.0039 c 0.0474,-0.0097 0.085,-0.0879 0.0161,-0.1142 -0.2768,-0.1231 -0.3862,-0.1592 -0.392,-0.2061 -0.0074,-0.0996 -0.0249,-0.1777 0.0263,-0.1836 0.1323,-0.0097 0.1543,-0.0312 0.1543,-0.0312 0.1314,-0.1651 0.2173,-0.169 0.2627,-0.1778 a 1.52343,1.52343 0 0 1 0.4209,0.0899 c 0.0386,0.0098 0.0996,0.0166 0.1201,-0.0039 a 0.25846,0.25846 0 0 1 0.3658,0.0039 c -0.0811,-0.0098 -0.2173,0.0967 -0.1749,0.1269 0.1045,0.0752 -0.0268,0.3555 -0.0551,0.4395 -0.0821,0.249 0.1758,0.4941 0.1758,0.4941 A 0.37867,0.37867 0 0 1 38.438,28.5308 c 0,0.4394 0.6655,0.457 0.6655,0.457 -0.1362,0.25 -0.55709,0.1875 -0.64209,0.1719 -0.09961,-0.0215 -0.084,0.1113 0.04979,0.1562 a 2.38741,2.38741 0 0 1 0.6113,0.3711 h 0.6133 a 0.38567,0.38567 0 0 0 0.01561,-0.2793 2.49251,2.49251 0 0 0 -0.393,-0.6543 C 39.3071,28.6851 39.2607,28.6245 39.2251,28.5698 c -0.0108,-0.0185 -0.314,-0.459 -0.1314,-0.7295 a 0.42931,0.42931 0 0 1 0.5396,-0.1709 c 0.1738,-0.2021 0.4658,-0.1328 0.5864,0.1856 0.1362,0.3652 -0.2251,0.4121 -0.0127,0.9629 a 0.78168,0.78168 0 0 1 -0.5859,-0.9883 1.20358,1.20358 0 0 0 -0.1748,-0.0117 0.24021,0.24021 0 0 0 -0.2066,0.1094 c -0.084,0.1386 0.03371,0.4091 0.1265,0.5468 0.0337,0.0518 0.0801,0.1114 0.1284,0.1797 a 2.524,2.524 0 0 1 0.42381,0.711 0.61711,0.61711 0 0 1 -9.1e-4,0.3222 h 0.58691 V 26.5874 H 35.4136 l -0.0684,-0.0185 c -10e-4,-0.0752 0,-0.1885 0.0068,-0.4415 0.0357,-1.1259 -0.3388,-1.4951 -0.6045,-1.6142 m 0.419,9.4707 a 5.55,5.55 0 0 0 0.081,0.9287 h 2.9278 a 2.76418,2.76418 0 0 1 -0.3931,-1.4268 v -0.3984 h -2.6157 v 0.8965 m 1.0083,3.1465 a 5.46666,5.46666 0 0 0 1.3838,1.3457 l -0.0078,3.5371 h 5.7465 l 0.0054,-2.6846 a 5.37205,5.37205 0 0 1 -4.7016,-0.3105 5.3926,5.3926 0 0 0 1.90331,0.3711 V 37.1304 H 36.1748 m 8.6201,6.0586 c 0,-0.3662 -0.3931,-0.7324 -1.0518,-0.9766 h -6.5283 c -0.6577,0.2442 -1.0508,0.6104 -1.0508,0.9766 a 0.46909,0.46909 0 0 0 0.0157,0.1191 h 8.6045 a 0.59417,0.59417 0 0 0 0.0107,-0.1191 m 1.1587,-10.1016 h -2.5791 v 0.3984 a 2.75752,2.75752 0 0 1 -0.1025,0.7481 2.15937,2.15937 0 0 0 0.4887,-0.0215 c 0,0 0.3902,-0.0225 0.5908,-0.0098 a 1.23444,1.23444 0 0 1 0.2618,0.0469 c 0.1894,-0.039 0.5483,-0.1504 0.624,-0.291 0.01411,-0.0293 0.0635,-0.0723 0.0498,-0.1016 -0.002,-0.0058 -0.0039,-0.1191 -0.03169,-0.1259 a 0.78761,0.78761 0 0 0 -0.50691,0.0986 0.63808,0.63808 0 0 1 -0.63909,0.0537 c -0.066,-0.0498 -0.07471,-0.1465 -0.02931,-0.2939 0,0 0.0195,-0.1836 0.3178,-0.1836 0.1026,-0.0039 0.1148,0.123 0.0269,0.1894 -0.0625,0.0479 -0.2046,0.125 -0.272,0.0938 -0.0117,0.0615 -0.0068,0.1035 0.0132,0.1191 a 0.48229,0.48229 0 0 0 0.5342,-0.0576 0.88366,0.88366 0 0 1 0.583,-0.1113 c 0.0561,0.0185 0.11721,0.1162 0.1279,0.1416 0.0259,0.0566 -0.0649,0.166 -0.0918,0.2226 -0.082,0.1543 -0.37989,0.2598 -0.5757,0.3135 a 0.2582,0.2582 0 0 1 0.1065,0.1221 0.92433,0.92433 0 0 1 0.0498,0.1523 c 0.0493,0.252 0.375,0.1231 0.375,0.1231 a 2.50174,2.50174 0 0 1 -0.1382,0.5507 c -0.0337,0.1026 -0.249,0.0508 -0.3369,0.0508 -0.1133,0 0,-0.0625 0.03761,-0.0888 0.03859,-0.0254 0.17379,0.0263 0.17379,0.0263 l 0.07421,-0.3261 a 0.59521,0.59521 0 0 1 -0.59761,-0.3291 2.94051,2.94051 0 0 1 -0.67139,0.6826 0.235,0.235 0 0 1 -0.26421,0 c -0.0503,-0.0537 0.07521,-0.0655 0.07521,-0.0655 0.249,-0.0888 0.62359,-0.6377 0.62359,-0.6377 0,0 0.0756,-0.1855 -0.4488,0.0645 a 1.61226,1.61226 0 0 1 -0.7812,0.1973 c -0.0078,0.0156 -0.01659,0.0312 -0.0259,0.0488 a 2.84208,2.84208 0 0 1 -0.957,0.9844 2.81229,2.81229 0 0 1 -1.3345,0.4121 v 3.1025 a 5.3677,5.3677 0 0 0 2.981,-0.9971 v -0.0019 a 5.39815,5.39815 0 0 0 2.269,-4.4043 z m 0,-6.5 h -5.25 v 3.0996 h 1.4619 c 0.0288,-0.0283 0.0493,-0.0498 0.0654,-0.0664 A 0.95472,0.95472 0 0 1 41.9028,29.3901 0.87666,0.87666 0 0 0 42.4165,29.23 0.173,0.173 0 0 0 42.33641,29.1235 5.79549,5.79549 0 0 1 41.4189,28.3189 c -0.3418,0.0361 -0.3842,-0.169 -0.3842,-0.169 0.09371,0.0254 0.2983,0.0059 0.2983,-0.0605 0,-0.0782 -0.28959,-0.2041 -0.28959,-0.2041 0.06939,-0.0616 0.32819,0.0117 0.32819,0.0117 a 1.27883,1.27883 0 0 0 -0.1748,-0.2686 c 0.145,0 0.31,0.1836 0.31,0.1836 0.0425,-0.0947 -0.04639,-0.3027 -0.04639,-0.3027 a 0.55726,0.55726 0 0 1 0.23879,0.5644 l 0.7383,0.5411 c 0.2143,0.1093 0.39891,0.1718 0.4502,-0.127 a 0.59583,0.59583 0 0 1 -0.3252,-0.2021 0.59483,0.59483 0 0 0 0.2983,-0.0987 c 0.1524,-0.0976 0,-0.4746 0.2007,-0.5127 l 0.8247,0.1748 a 1.101,1.101 0 0 1 -0.0771,0.5117 c 0,0 0.0268,0.2754 0.1504,0.3262 0,0 -0.2749,0.0488 -0.3243,-0.0254 l -0.0493,0.1133 a 0.59542,0.59542 0 0 0 0.3281,0.5332 3.10837,3.10837 0 0 1 0.7842,0.5137 0.54727,0.54727 0 0 0 0.4131,-0.1016 0.34424,0.34424 0 0 0 0.0435,-0.3232 2.594,2.594 0 0 0 -0.3936,-0.6514 c -0.0503,-0.0664 -0.0976,-0.1308 -0.1323,-0.1816 -0.0117,-0.0196 -0.314,-0.461 -0.1343,-0.7344 a 0.43477,0.43477 0 0 1 0.5415,-0.1699 c 0.1748,-0.1992 0.4644,-0.1299 0.5845,0.1875 0.1406,0.3652 -0.2251,0.4121 -0.0108,0.9629 a 0.78332,0.78332 0 0 1 -0.5878,-0.9883 1.10315,1.10315 0 0 0 -0.1739,-0.0127 0.24364,0.24364 0 0 0 -0.206,0.1103 c -0.083,0.1387 0.0332,0.4092 0.1274,0.5469 0.0332,0.0488 0.0786,0.1113 0.1284,0.1797 a 2.43738,2.43738 0 0 1 0.4224,0.7129 0.51385,0.51385 0 0 1 -0.083,0.4795 0.64333,0.64333 0 0 1 -0.478,0.1592 c 0.0337,0.0752 0.0376,0.1308 0.0625,0.2002 a 0.4243,0.4243 0 0 0 0.1538,0.2002 c -0.2378,0.1972 -0.1538,0.3789 -0.0415,0.4804 0.1357,0.125 0.3154,-0.0332 0.3154,-0.0332 0.144,0.835 -0.9878,1.2539 -0.95309,1.3047 0.03609,0.0547 0.07569,0.043 0.12739,0.1367 a 0.16587,0.16587 0 0 1 -0.1099,0.2637 c 0.0157,-0.1445 -0.0473,-0.2539 -0.1254,-0.2617 -0.0752,-0.0098 -0.22509,0.2773 -0.22509,0.2773 -0.05911,-0.084 0.06489,-0.3183 0.06489,-0.3183 -0.08689,-0.0332 -0.3042,0.2607 -0.3042,0.2607 -0.0503,-0.1279 0.105,-0.3086 0.105,-0.3086 -0.1284,-0.042 -0.334,0.1963 -0.334,0.1963 -0.0088,-0.4248 0.332,-0.4404 0.502,-0.4424 0.6499,-0.0127 0.4521,-0.6953 0.4521,-0.6953 -0.3179,0.2666 -0.5449,0.1533 -0.5449,0.1533 a 0.37337,0.37337 0 0 0 0.209,-0.3877 C 44.0561,30.4624 44.0405,30.3931 44.082,30.3335 44.12941,30.2691 44.0146,30.2983 44.0146,30.2983 43.9297,30.5816 43.37641,30.98 43.37641,30.98 a 2.06673,2.06673 0 0 1 0.26369,0.1025 0.48713,0.48713 0 0 1 -0.2656,0.2608 v 1.5429 h 2.5791 z"
     id="path233" />
  <path
     class="cls-1"
     d="m 72.7817,12.8071 c -1.0849,0.0762 -1.5625,0.3995 -1.65329,1.1109 a 21.31247,21.31247 0 0 0 -0.13671,2.8388 v 0.9439 c 0,2.1162 -0.3457,3.7173 -1.4219,4.8398 a 4.5541,4.5541 0 0 1 -3.4473,1.3438 5.09066,5.09066 0 0 1 -3.1499,-0.9297 C 61.875,22.103 61.3633,20.7026 61.3633,18.499 v -3.7758 c 0,-1.7188 -0.17,-1.7833 -1.60989,-1.9161 v -0.625 h 5.24319 v 0.625 c -1.4287,0.1075 -1.5923,0.19 -1.5923,1.9161 v 3.3872 c 0,2.9375 1.102,4.6254 3.3003,4.6254 2.4746,0 3.333,-1.9907 3.333,-5.1264 v -0.8526 a 17.40748,17.40748 0 0 0 -0.1787,-2.8427 c -0.10449,-0.6909 -0.5147,-1.0127 -1.8164,-1.107 v -0.625 h 4.7392 z M 85.06,13.6982 a 1.13925,1.13925 0 0 0 1.1407,-1.1308 1.127,1.127 0 0 0 -1.1211,-1.1533 1.1421,1.1421 0 0 0 -0.0196,2.2841 z m 2.4961,9.9224 v -0.5459 c -1.17769,-0.126 -1.4062,-0.2373 -1.4062,-1.5185 v -6.4527 a 27.35263,27.35263 0 0 1 -3.3164,0.711 v 0.5004 c 1.0195,0.1583 1.3887,0.2393 1.3887,1.4312 v 3.8101 c 0,1.3105 -0.2471,1.4052 -1.38679,1.5185 v 0.5459 z m 11.07031,-5.3418 c 0.12309,-1.3779 0.84179,-2.4487 1.79889,-2.4487 0.914,0 1.414,0.9643 1.41011,2.043 -9.1e-4,0.2963 -0.11521,0.4057 -0.42871,0.4057 z m 4.71679,0.6284 a 0.45806,0.45806 0 0 0 0.5069,-0.5185 3.0091,3.0091 0 0 0 -3.2071,-3.1875 3.64691,3.64691 0 0 0 -2.7158,1.1899 4.98887,4.98887 0 0 0 -1.3525,3.4336 3.83491,3.83491 0 0 0 3.9082,4.0225 4.35652,4.35652 0 0 0 3.2832,-1.9395 l -0.3135,-0.4399 a 3.16175,3.16175 0 0 1 -2.15819,0.8852 c -1.35551,0 -2.72851,-0.7851 -2.72851,-3.2788 z m 28.3809,-0.6284 c 0.1211,-1.3779 0.8418,-2.4487 1.7988,-2.4487 0.9121,0 1.4121,0.9643 1.4102,2.043 -0.002,0.2963 -0.1152,0.4057 -0.42969,0.4057 z m 4.7148,0.6284 a 0.45712,0.45712 0 0 0 0.5079,-0.5185 3.0091,3.0091 0 0 0 -3.2071,-3.1875 3.64635,3.64635 0 0 0 -2.7148,1.1899 4.97917,4.97917 0 0 0 -1.3516,3.4336 3.83389,3.83389 0 0 0 3.9063,4.0225 4.35373,4.35373 0 0 0 3.2832,-1.9395 l -0.3106,-0.4399 a 3.16972,3.16972 0 0 1 -2.1601,0.8852 c -1.3555,0 -2.7285,-0.7851 -2.7285,-3.2788 z m -28.5937,-1.7129 v -2.1084 a 14.29074,14.29074 0 0 1 -3.0195,0.7403 v 0.4751 c 0.9824,0.1767 1.1328,0.2529 1.1328,1.3623 v 4 c 0,1.1972 -0.20609,1.2978 -1.2949,1.4111 v 0.5459 h 4.8066 v -0.5459 c -1.4473,-0.1133 -1.583,-0.2139 -1.583,-1.4111 v -3.4722 c 0.36821,-0.9155 0.876,-1.3042 1.3105,-1.3042 a 1.87657,1.87657 0 0 1 0.9971,0.461 0.32625,0.32625 0 0 0 0.416,0.0151 1.82647,1.82647 0 0 0 0.7364,-1.354 c 0,-0.5337 -0.5137,-0.9165 -1.17779,-0.9165 -0.81641,0 -1.667,1.0273 -2.28711,2.1015 z m 9.5625,0.3394 a 11.11632,11.11632 0 0 0 -0.3887,-2.085 4.74437,4.74437 0 0 0 -1.8281,-0.3252 c -1.8926,-0.0068 -3.0723,1.1543 -3.0723,2.5479 0,1.5317 1.4043,2.2153 2.42781,2.6865 1.07809,0.5025 1.48629,0.9536 1.48629,1.6377 a 1.17308,1.17308 0 0 1 -1.2188,1.1797 c -1.1503,0 -2.0253,-1.1934 -2.416,-2.4102 l -0.5293,0.063 a 9.45823,9.45823 0 0 0 0.3125,2.3843 4.30674,4.30674 0 0 0 2.3008,0.6348 c 1.584,0 3.2949,-0.8926 3.2949,-2.6812 0,-1.3857 -1.0019,-2.0522 -2.5039,-2.6792 -0.9218,-0.3823 -1.5273,-0.8335 -1.5273,-1.5386 a 1.11384,1.11384 0 0 1 1.1172,-1.166 c 1.041,0 1.5664,0.7642 2.0019,1.897 z m 3.4668,-3.8355 a 1.13816,1.13816 0 0 0 1.1387,-1.1308 1.126,1.126 0 0 0 -1.1192,-1.1533 1.1421,1.1421 0 0 0 -0.0195,2.2841 z m 2.4512,9.9224 v -0.5459 c -1.1758,-0.126 -1.3614,-0.2373 -1.3614,-1.5185 v -6.4527 a 26.78047,26.78047 0 0 1 -3.2754,0.711 v 0.5004 c 1.02151,0.1583 1.3458,0.2393 1.3458,1.4312 v 3.8101 c 0,1.3105 -0.2032,1.4052 -1.3438,1.5185 v 0.5459 z m 16.6172,-9.9224 a 1.13938,1.13938 0 0 0 1.1386,-1.1308 1.12756,1.12756 0 0 0 -1.12109,-1.1533 1.14209,1.14209 0 0 0 -0.0175,2.2841 z m 2.4511,9.9224 v -0.5459 c -1.1777,-0.126 -1.3633,-0.2373 -1.3633,-1.5185 v -6.4527 a 26.62357,26.62357 0 0 1 -3.27529,0.711 v 0.5004 c 1.02139,0.1583 1.34759,0.2393 1.34759,1.4312 v 3.8101 c 0,1.3105 -0.2051,1.4052 -1.3437,1.5185 v 0.5459 z m 1.6231,-9.6391 v 1.4526 h -1.01369 l -0.35351,0.6558 v 0.2075 h 1.3672 v 5.1943 a 2.06644,2.06644 0 0 0 2.248,2.3096 1.0881,1.0881 0 0 0 0.5899,-0.1397 15.3604,15.3604 0 0 0 1.6738,-0.9043 l -0.2305,-0.4746 a 3.32119,3.32119 0 0 1 -1.2011,0.3428 c -0.4239,0 -1.0762,-0.2686 -1.0762,-1.7612 v -4.5669 h 2.0566 a 1.32387,1.32387 0 0 0 0.2266,-0.8633 h -2.2832 v -2.522 l -0.2637,-0.0791 a 9.51131,9.51131 0 0 1 -1.7402,1.1485 z m -19.0664,0 v 1.4526 h -1.0137 l -0.35159,0.6558 v 0.2075 h 1.36529 v 5.1943 a 2.06562,2.06562 0 0 0 2.248,2.3096 1.0928,1.0928 0 0 0 0.5899,-0.1397 15.3416,15.3416 0 0 0 1.67181,-0.9043 l -0.22851,-0.4746 a 3.34467,3.34467 0 0 1 -1.2012,0.3428 c -0.4277,0 -1.0781,-0.2686 -1.0781,-1.7612 v -4.5669 h 2.0567 a 1.30358,1.30358 0 0 0 0.2285,-0.8633 h -2.2852 v -2.522 l -0.2617,-0.0791 a 9.57617,9.57617 0 0 1 -1.7402,1.1485 z M 93.062,23.6206 c 0.9307,-2.7905 1.4805,-4.6055 2.1777,-6.5176 0.3213,-0.8803 0.4912,-1.0131 1.4024,-1.1123 V 15.4419 H 93.062 l 0.005,0.5488 a 3.95043,3.95043 0 0 1 0.6689,0.1148 c 0.4121,0.124 0.4844,0.3945 0.3184,0.9311 l -1.59379,5.4307 h -0.0722 l -1.4952,-5.3999 c -0.1455,-0.5713 -0.0888,-0.8037 0.1163,-0.9136 a 2.21139,2.21139 0 0 1 0.7832,-0.1631 v -0.5488 h -4.377 v 0.5488 c 1.0635,0.1148 0.9375,0.2134 1.33991,1.19 l 2.12589,6.4399 z M 72.6343,16.3013 c 1.0127,0.1899 1.374,0.2588 1.374,1.4267 v 3.8907 c 0,1.2421 -0.2197,1.3105 -1.4424,1.456 v 0.5459 h 4.502 v -0.5459 c -0.9317,-0.1133 -1.129,-0.1875 -1.129,-1.4111 v -4.4829 a 3.06637,3.06637 0 0 1 1.56251,-0.77 c 0.89459,0 1.67489,0.4765 1.67489,1.9135 v 3.2144 c 0,1.3144 -0.1124,1.4228 -1.0645,1.5361 v 0.5459 h 4.2607 V 23.0747 C 81.3452,22.9429 81.105,22.8872 81.105,21.6636 V 18.061 c 0,-1.853 -0.8575,-2.9555 -2.3594,-2.9555 a 2.18477,2.18477 0 0 0 -1.2188,0.3481 l -1.5879,1.0747 v -1.4492 a 27.29194,27.29194 0 0 1 -3.3046,0.7285 z m 8.7187,16.2256 a 1.14166,1.14166 0 1 0 -1.125,-1.1299 1.139,1.139 0 0 0 1.125,1.1299 z m 2.4541,9.9238 v -0.5469 c -1.17769,-0.125 -1.3633,-0.2373 -1.3633,-1.5176 v -6.4511 a 26.60885,26.60885 0 0 1 -3.27339,0.709 v 0.5019 c 1.01949,0.1543 1.34469,0.2363 1.34469,1.4307 v 3.8095 c 0,1.3106 -0.2031,1.4053 -1.34369,1.5176 v 0.5469 z M 72.9839,37.1089 c 0.1211,-1.377 0.8418,-2.4492 1.7968,-2.4492 0.9131,0 1.4141,0.9638 1.4102,2.0439 0,0.2949 -0.1143,0.4053 -0.4277,0.4053 z m 4.7148,0.6279 a 0.45737,0.45737 0 0 0 0.5068,-0.5185 3.00979,3.00979 0 0 0 -3.208,-3.1875 3.63859,3.63859 0 0 0 -2.7128,1.1894 4.97151,4.97151 0 0 0 -1.3536,3.4336 3.83438,3.83438 0 0 0 3.90731,4.0235 4.35447,4.35447 0 0 0 3.28409,-1.9395 l -0.3144,-0.4395 a 3.16667,3.16667 0 0 1 -2.1582,0.8848 c -1.35549,0 -2.72849,-0.7861 -2.72849,-3.2793 z m 18.7539,-0.6279 c 0.1221,-1.377 0.84281,-2.4492 1.79881,-2.4492 0.91309,0 1.41409,0.9638 1.41019,2.0439 -0.002,0.2949 -0.11519,0.4053 -0.4277,0.4053 z m 4.71681,0.6279 a 0.45664,0.45664 0 0 0 0.50689,-0.5185 3.0086,3.0086 0 0 0 -3.2071,-3.1875 3.65087,3.65087 0 0 0 -2.71579,1.1894 4.98371,4.98371 0 0 0 -1.35161,3.4336 3.83458,3.83458 0 0 0 3.9082,4.0235 4.35449,4.35449 0 0 0 3.2832,-1.9395 l -0.3125,-0.4395 a 3.1781,3.1781 0 0 1 -2.1601,0.8848 c -1.3555,0 -2.7285,-0.7861 -2.7285,-3.2793 z M 69.4136,39.1382 a 4.367,4.367 0 0 1 -1.0723,1.8057 2.66471,2.66471 0 0 1 -1.9307,0.6943 3.41382,3.41382 0 0 1 -1.4765,-0.2012 c -0.3643,-0.1758 -0.4444,-0.5351 -0.4444,-1.4804 v -6.4805 c 0,-1.6172 0.211,-1.7119 1.6719,-1.8379 v -0.627 H 60.771 v 0.627 c 1.4902,0.126 1.6767,0.2383 1.6767,1.8379 v 6.5029 c 0,1.6006 -0.2465,1.7188 -1.8579,1.8457 v 0.626 h 8.7691 c 0.1699,-0.5391 0.5527,-2.457 0.6914,-3.1611 z M 90.437,40.936 a 2.50229,2.50229 0 0 1 -1.4219,0.4834 c -1.0351,0 -2.3808,-0.9902 -2.3808,-3.2627 0,-2.7988 1.49611,-3.3935 2.1523,-3.3935 a 1.68159,1.68159 0 0 1 1.6504,0.8232 z m 3.4258,0.4981 -0.5547,-0.0567 C 92.5679,41.2896 92.3647,41.2075 92.3647,40.1851 V 29.6548 a 22.95506,22.95506 0 0 1 -3.416,0.6533 v 0.5264 c 1.2529,0.1074 1.4883,0.1963 1.4883,1.3193 v 1.9922 a 6.30183,6.30183 0 0 0 -1.2168,-0.1504 4.44616,4.44616 0 0 0 -4.7441,4.6572 3.60935,3.60935 0 0 0 3.4589,3.9385 2.38986,2.38986 0 0 0 1.3672,-0.3164 L 90.437,41.564 v 1.1259 c 0.7031,-0.206 2.4121,-0.5703 3.4258,-0.7285 z m 8.64061,-6.3018 c 1.01369,0.1875 1.332,0.2578 1.332,1.4239 v 3.8916 c 0,1.2431 -0.17771,1.3115 -1.39941,1.456 v 0.5469 h 4.418 v -0.5469 c -0.93359,-0.1123 -1.0889,-0.1875 -1.0889,-1.4121 v -4.4785 a 3.05092,3.05092 0 0 1 1.5664,-0.7734 c 0.8907,0 1.67291,0.4765 1.67291,1.916 v 3.2129 c 0,1.3154 -0.11431,1.4228 -1.06551,1.5351 v 0.5469 h 4.2188 v -0.5469 c -1.02729,-0.1328 -1.2246,-0.1875 -1.2246,-1.4121 v -3.6016 c 0,-1.8525 -0.9121,-2.955 -2.4141,-2.955 a 2.11018,2.11018 0 0 0 -1.207,0.3496 l -1.5469,1.0732 v -1.4482 a 26.207,26.207 0 0 1 -3.26169,0.7265 z"
     id="path235" />
  <path
     class="cls-1"
     d="m 69.3022,58.2798 v -0.3301 c 0.5723,-0.0664 0.627,-0.1543 0.627,-0.792 v -1.8926 c 0,-0.8691 -0.3633,-1.2207 -0.9121,-1.2099 a 1.26306,1.26306 0 0 0 -0.9239,0.4072 v 2.6953 c 0,0.6377 0.0547,0.7256 0.5938,0.792 v 0.3301 h -2.5313 v -0.3301 c 0.6719,-0.0664 0.7383,-0.1211 0.7383,-0.8359 v -5.4463 a 17.77351,17.77351 0 0 0 -2.1562,-0.0879 h -0.5513 v 5.2812 c 0,0.9239 0.1104,1.001 1.02391,1.0665 v 0.3525 H 61.9209 v -0.3525 c 0.8799,-0.0655 0.97851,-0.1426 0.97851,-1.0665 V 51.5796 H 62.3828 c -0.9678,0 -1.166,0.1103 -1.3311,0.3525 a 2.6348,2.6348 0 0 0 -0.3964,0.9903 h -0.3741 c 0.0547,-0.7373 0.1104,-1.4961 0.1319,-2.0684 h 0.2314 c 0.1651,0.2422 0.3076,0.2744 0.6162,0.2744 h 4.5552 c 0.8691,0 1.0781,-0.0547 1.0781,-0.2422 v -0.1533 a 8.742,8.742 0 0 0 1.1992,-0.2754 v 3.5752 a 2.25279,2.25279 0 0 1 1.4961,-0.7256 c 0.95711,-0.0107 1.53911,0.5938 1.53911,1.837 v 1.9697 c 0,0.7148 0.06639,0.7588 0.67189,0.8359 v 0.3301 z"
     id="path237" />
  <path
     class="cls-1"
     d="m 76.4956,57.2564 a 2.48965,2.48965 0 0 1 -1.9141,1.1552 2.19423,2.19423 0 0 1 -2.2226,-2.3545 2.76091,2.76091 0 0 1 0.7812,-1.958 2.37187,2.37187 0 0 1 1.6621,-0.792 1.76893,1.76893 0 0 1 1.7383,1.7276 c 0,0.2197 -0.0664,0.3515 -0.2969,0.3847 -0.19919,0.0332 -1.5527,0.1319 -2.707,0.1758 0.0332,1.2989 0.75981,1.9033 1.5391,1.9033 a 1.78839,1.78839 0 0 0 1.2324,-0.5058 z m -2.9043,-2.1563 c 0.5059,0 0.9902,-0.0107 1.49611,-0.0332 0.17579,0 0.24219,-0.0322 0.25389,-0.209 0,-0.5713 -0.29689,-1.1221 -0.7813,-1.1221 -0.4511,0 -0.8691,0.4952 -0.9687,1.3643 z"
     id="path239" />
  <path
     class="cls-1"
     d="m 86.5249,51.481 c -0.5938,0.0332 -0.836,0.1865 -0.8906,0.6816 a 13.71364,13.71364 0 0 0 -0.0879,1.8379 v 4.3896 H 85.08349 L 80.4624,52.8013 h -0.0215 v 2.5849 a 16.48951,16.48951 0 0 0 0.0781,1.8047 c 0.0547,0.5166 0.2637,0.6924 1.0547,0.7364 v 0.3525 h -2.6621 v -0.3525 c 0.6172,-0.044 0.8809,-0.209 0.9356,-0.7032 a 16.91918,16.91918 0 0 0 0.0878,-1.8379 v -2.3427 c 0,-0.7491 -0.0117,-0.9024 -0.2207,-1.1553 A 1.14474,1.14474 0 0 0 78.769,51.481 v -0.3526 h 1.8926 l 4.3457,5.0723 h 0.0332 v -2.2002 c 0,-0.9902 -0.0547,-1.5078 -0.0781,-1.8262 -0.0664,-0.4736 -0.29691,-0.6494 -1.08791,-0.6933 v -0.3526 h 2.6504 z"
     id="path241" />
  <path
     class="cls-1"
     d="m 90.9917,57.2564 a 2.48967,2.48967 0 0 1 -1.916,1.1552 2.19382,2.19382 0 0 1 -2.2207,-2.3545 2.76091,2.76091 0 0 1 0.7812,-1.958 2.3713,2.3713 0 0 1 1.66021,-0.792 1.76893,1.76893 0 0 1 1.73829,1.7276 c 0,0.2197 -0.0665,0.3515 -0.2969,0.3847 -0.1973,0.0332 -1.5508,0.1319 -2.7071,0.1758 0.0332,1.2989 0.7598,1.9033 1.5411,1.9033 a 1.78855,1.78855 0 0 0 1.2324,-0.5058 z m -2.90429,-2.1563 c 0.50579,0 0.98829,-0.0107 1.49609,-0.0332 0.1758,0 0.2402,-0.0322 0.25191,-0.209 0,-0.5713 -0.29681,-1.1221 -0.78121,-1.1221 -0.4512,0 -0.8692,0.4952 -0.96679,1.3643 z"
     id="path243" />
  <path
     class="cls-1"
     d="m 93.9057,58.2798 a 1.26776,1.26776 0 0 1 -0.4511,0.1318 c -0.791,0 -1.24219,-0.4072 -1.24219,-1.3642 V 53.9341 H 91.4975 l -0.0546,-0.1318 0.3066,-0.3633 h 0.46291 v -0.8028 l 1.05659,-0.8144 0.1426,0.0547 v 1.5625 h 1.1445 a 0.34464,0.34464 0 0 1 -0.0664,0.4951 h -1.0781 v 2.75 c 0,0.8691 0.3965,0.9902 0.6367,0.9902 a 1.47682,1.47682 0 0 0 0.5957,-0.1426 l 0.10941,0.3409 z"
     id="path245" />
  <path
     class="cls-1"
     d="m 98.1186,58.2798 v -0.3301 c 0.5723,-0.0664 0.627,-0.1426 0.627,-0.792 v -1.8926 c 0,-0.8691 -0.3613,-1.2099 -0.9004,-1.2099 a 1.2802,1.2802 0 0 0 -0.92579,0.3965 v 2.706 c 0,0.6494 0.0567,0.7256 0.584,0.792 v 0.3301 H 94.9956 v -0.3301 c 0.6367,-0.0664 0.71481,-0.1103 0.71481,-0.8144 v -5.17 c 0,-0.6826 -0.0332,-0.7041 -0.66011,-0.7597 V 50.898 a 14.51639,14.51639 0 0 0 1.86911,-0.3858 v 3.5322 a 2.35017,2.35017 0 0 1 1.50779,-0.7373 c 0.9356,0 1.5176,0.5938 1.5176,1.8487 v 1.9795 c 0,0.7041 0.0781,0.7373 0.6719,0.8144 v 0.3301 z"
     id="path247" />
  <path
     class="cls-1"
     d="m 105.3237,57.2564 a 2.48965,2.48965 0 0 1 -1.914,1.1552 2.19425,2.19425 0 0 1 -2.2227,-2.3545 2.76137,2.76137 0 0 1 0.7812,-1.958 2.3721,2.3721 0 0 1 1.66221,-0.792 1.76884,1.76884 0 0 1 1.73819,1.7276 c 0,0.2197 -0.0664,0.3515 -0.2968,0.3847 -0.1993,0.0332 -1.5528,0.1319 -2.7071,0.1758 0.0332,1.2989 0.7598,1.9033 1.5391,1.9033 a 1.78838,1.78838 0 0 0 1.2324,-0.5058 z m -2.90429,-2.1563 c 0.50589,0 0.99029,-0.0107 1.49609,-0.0332 0.1758,0 0.2422,-0.0322 0.25391,-0.209 0,-0.5713 -0.29691,-1.1221 -0.78121,-1.1221 -0.4512,0 -0.8692,0.4952 -0.96879,1.3643 z"
     id="path249" />
  <path
     class="cls-1"
     d="m 107.8432,54.4732 c 0.3731,-0.6495 0.8243,-1.1661 1.2754,-1.1661 a 0.66343,0.66343 0 0 1 0.7051,0.6377 0.76455,0.76455 0 0 1 -0.4726,0.7041 0.28822,0.28822 0 0 1 -0.3204,-0.0322 0.754,0.754 0 0 0 -0.4941,-0.2314 c -0.24219,0 -0.5059,0.2089 -0.7148,0.7148 v 2.0352 c 0,0.6933 0.0546,0.748 0.9004,0.8144 v 0.3301 h -2.8379 v -0.3301 c 0.6269,-0.0664 0.7265,-0.1211 0.7265,-0.8144 V 54.77 c 0,-0.6162 -0.0664,-0.6601 -0.6269,-0.7695 v -0.2861 a 10.32434,10.32434 0 0 0 1.8379,-0.4297 v 1.1885 z"
     id="path251" />
  <path
     class="cls-1"
     d="m 109.9975,58.2798 v -0.3301 c 0.67191,-0.0879 0.7383,-0.1426 0.7383,-0.8584 v -5.0937 c 0,-0.6924 -0.0547,-0.7256 -0.6933,-0.792 V 50.898 a 12.36505,12.36505 0 0 0 1.9023,-0.3858 v 6.5791 c 0,0.7373 0.0781,0.792 0.7598,0.8584 v 0.3301 z"
     id="path253" />
  <path
     class="cls-1"
     d="m 116.75341,58.4116 a 0.96848,0.96848 0 0 1 -0.61721,-0.2197 1.15718,1.15718 0 0 1 -0.2754,-0.4404 3.68223,3.68223 0 0 1 -1.1992,0.6601 1.40356,1.40356 0 0 1 -1.4297,-1.3857 c 0,-0.5615 0.2754,-0.8584 0.8574,-1.0674 a 8.07538,8.07538 0 0 0 1.7383,-0.7266 v -0.2744 c 0,-0.7265 -0.3066,-1.1338 -0.7695,-1.1338 a 0.48911,0.48911 0 0 0 -0.4063,0.1983 1.90818,1.90818 0 0 0 -0.3203,0.748 0.38127,0.38127 0 0 1 -0.4179,0.3301 0.634,0.634 0 0 1 -0.6036,-0.5283 c 0,-0.1758 0.1309,-0.3184 0.3731,-0.4834 a 5.10393,5.10393 0 0 1 1.7598,-0.7813 1.4762,1.4762 0 0 1 1.56251,1.7159 v 1.9033 c 0,0.5068 0.17569,0.6494 0.36319,0.6494 a 0.87077,0.87077 0 0 0 0.375,-0.0986 l 0.1211,0.33 z m -0.92581,-2.7724 c -0.2187,0.1211 -0.5156,0.2754 -0.748,0.3965 a 0.79928,0.79928 0 0 0 -0.5703,0.7695 0.75923,0.75923 0 0 0 0.70311,0.8369 1.0573,1.0573 0 0 0 0.61519,-0.2539 z"
     id="path255" />
  <path
     class="cls-1"
     d="m 121.29641,58.2798 v -0.3301 c 0.52729,-0.0664 0.59369,-0.1211 0.59369,-0.9023 v -1.8477 c 0,-0.7812 -0.3418,-1.1113 -0.8476,-1.1113 a 1.56259,1.56259 0 0 0 -0.95709,0.418 v 2.6289 c 0,0.7041 0.0664,0.748 0.584,0.8144 v 0.3301 h -2.55271 v -0.3301 c 0.7031,-0.0879 0.7578,-0.1211 0.7578,-0.8467 v -2.2773 c 0,-0.6826 -0.0547,-0.7158 -0.6152,-0.8252 v -0.2979 a 10.06745,10.06745 0 0 0 1.82611,-0.4287 v 0.836 c 0.22069,-0.1533 0.43949,-0.3184 0.70509,-0.4834 a 1.51639,1.51639 0 0 1 0.87891,-0.3194 c 0.88089,0 1.41989,0.6377 1.41989,1.7276 v 2.0898 c 0,0.7149 0.0664,0.7481 0.67,0.8252 v 0.3301 z"
     id="path257" />
  <path
     class="cls-1"
     d="m 129.8198,57.9937 a 14.246,14.246 0 0 0 -1.9902,0.4287 v -0.6709 l -0.6719,0.4179 a 1.35379,1.35379 0 0 1 -0.6602,0.2422 2.27886,2.27886 0 0 1 -2.1777,-2.3867 2.83609,2.83609 0 0 1 2.9492,-2.7178 2.89671,2.89671 0 0 1 0.5606,0.0772 v -1.4082 c 0,-0.6387 -0.0664,-0.6826 -0.7813,-0.7598 V 50.898 a 13.02773,13.02773 0 0 0 1.9903,-0.3858 v 6.4258 c 0,0.6045 0.0664,0.6484 0.50781,0.7041 l 0.27339,0.0322 z m -1.9902,-3.6748 a 1.03761,1.03761 0 0 0 -0.9239,-0.5713 c -0.3535,0 -1.2226,0.3408 -1.2226,1.9795 0,1.3427 0.793,1.9033 1.3769,1.9033 a 1.39609,1.39609 0 0 0 0.7696,-0.253 z"
     id="path259" />
  <path
     class="cls-1"
     d="m 133.2417,54.814 c -0.2637,-0.6709 -0.627,-1.1114 -1.15429,-1.1114 a 0.6268,0.6268 0 0 0 -0.61721,0.6602 c 0,0.3857 0.3184,0.6494 0.8574,0.8809 0.8692,0.374 1.4531,0.7587 1.4531,1.5839 a 1.73653,1.73653 0 0 1 -1.914,1.584 2.5041,2.5041 0 0 1 -1.3418,-0.374 5.7069,5.7069 0 0 1 -0.1758,-1.4189 l 0.3066,-0.0332 c 0.2325,0.7041 0.7383,1.4189 1.3985,1.4189 a 0.65013,0.65013 0 0 0 0.6699,-0.6602 c 0,-0.374 -0.21869,-0.6376 -0.84569,-0.9453 C 131.3159,56.1343 130.48,55.7271 130.48,54.814 a 1.60044,1.60044 0 0 1 1.7929,-1.5069 2.53005,2.53005 0 0 1 1.02351,0.1866 7.36876,7.36876 0 0 1 0.26359,1.2324 z"
     id="path261" />
</svg>
